# WordMerge generated low-poly building; Z up
mtllib materials.mtl
g foundation_tile0-0
usemtl c_c3a477
v -0.5 -0.5 0
v 0.5 -0.5 0
v 0.5 0.5 0
v -0.5 0.5 0
f 1 2 3 4
g foundation_tile0-0
usemtl c_c3a477
v -0.5 0.5 -0.14
v 0.5 0.5 -0.14
v 0.5 -0.5 -0.14
v -0.5 -0.5 -0.14
f 5 6 7 8
g foundation_tile0-0
usemtl c_c3a477
v -0.5 -0.5 -0.14
v 0.5 -0.5 -0.14
v 0.5 -0.5 0
v -0.5 -0.5 0
f 9 10 11 12
g foundation_tile0-0
usemtl c_c3a477
v -0.5 0.5 -0.14
v -0.5 -0.5 -0.14
v -0.5 -0.5 0
v -0.5 0.5 0
f 13 14 15 16
g foundation_tile1-0
usemtl c_c3a477
v 0.5 -0.5 0
v 1.5 -0.5 0
v 1.5 0.5 0
v 0.5 0.5 0
f 17 18 19 20
g foundation_tile1-0
usemtl c_c3a477
v 0.5 0.5 -0.14
v 1.5 0.5 -0.14
v 1.5 -0.5 -0.14
v 0.5 -0.5 -0.14
f 21 22 23 24
g foundation_tile1-0
usemtl c_c3a477
v 0.5 -0.5 -0.14
v 1.5 -0.5 -0.14
v 1.5 -0.5 0
v 0.5 -0.5 0
f 25 26 27 28
g foundation_tile2-0
usemtl c_c3a477
v 1.5 -0.5 0
v 2.5 -0.5 0
v 2.5 0.5 0
v 1.5 0.5 0
f 29 30 31 32
g foundation_tile2-0
usemtl c_c3a477
v 1.5 0.5 -0.14
v 2.5 0.5 -0.14
v 2.5 -0.5 -0.14
v 1.5 -0.5 -0.14
f 33 34 35 36
g foundation_tile2-0
usemtl c_c3a477
v 1.5 -0.5 -0.14
v 2.5 -0.5 -0.14
v 2.5 -0.5 0
v 1.5 -0.5 0
f 37 38 39 40
g foundation_tile2-0
usemtl c_c3a477
v 2.5 -0.5 -0.14
v 2.5 0.5 -0.14
v 2.5 0.5 0
v 2.5 -0.5 0
f 41 42 43 44
g foundation_tile0-1
usemtl c_c3a477
v -0.5 0.5 0
v 0.5 0.5 0
v 0.5 1.5 0
v -0.5 1.5 0
f 45 46 47 48
g foundation_tile0-1
usemtl c_c3a477
v -0.5 1.5 -0.14
v 0.5 1.5 -0.14
v 0.5 0.5 -0.14
v -0.5 0.5 -0.14
f 49 50 51 52
g foundation_tile0-1
usemtl c_c3a477
v 0.5 1.5 -0.14
v -0.5 1.5 -0.14
v -0.5 1.5 0
v 0.5 1.5 0
f 53 54 55 56
g foundation_tile0-1
usemtl c_c3a477
v -0.5 1.5 -0.14
v -0.5 0.5 -0.14
v -0.5 0.5 0
v -0.5 1.5 0
f 57 58 59 60
g foundation_tile1-1
usemtl c_c3a477
v 0.5 0.5 0
v 1.5 0.5 0
v 1.5 1.5 0
v 0.5 1.5 0
f 61 62 63 64
g foundation_tile1-1
usemtl c_c3a477
v 0.5 1.5 -0.14
v 1.5 1.5 -0.14
v 1.5 0.5 -0.14
v 0.5 0.5 -0.14
f 65 66 67 68
g foundation_tile1-1
usemtl c_c3a477
v 1.5 1.5 -0.14
v 0.5 1.5 -0.14
v 0.5 1.5 0
v 1.5 1.5 0
f 69 70 71 72
g foundation_tile2-1
usemtl c_c3a477
v 1.5 0.5 0
v 2.5 0.5 0
v 2.5 1.5 0
v 1.5 1.5 0
f 73 74 75 76
g foundation_tile2-1
usemtl c_c3a477
v 1.5 1.5 -0.14
v 2.5 1.5 -0.14
v 2.5 0.5 -0.14
v 1.5 0.5 -0.14
f 77 78 79 80
g foundation_tile2-1
usemtl c_c3a477
v 2.5 0.5 -0.14
v 2.5 1.5 -0.14
v 2.5 1.5 0
v 2.5 0.5 0
f 81 82 83 84
g foundation_tile2-1
usemtl c_c3a477
v 2.5 1.5 -0.14
v 1.5 1.5 -0.14
v 1.5 1.5 0
v 2.5 1.5 0
f 85 86 87 88
g walls_edge0
usemtl c_b58c65
v 0.5 -0.435 0.90625
v -0.5 -0.435 0.90625
v -0.5 -0.565 0.90625
v 0.5 -0.565 0.90625
f 89 90 91 92
g walls_edge0
usemtl c_b58c65
v 0.5 -0.565 0
v -0.5 -0.565 0
v -0.5 -0.435 0
v 0.5 -0.435 0
f 93 94 95 96
g walls_edge0
usemtl c_b58c65
v 0.5 -0.435 0
v -0.5 -0.435 0
v -0.5 -0.435 0.90625
v 0.5 -0.435 0.90625
f 97 98 99 100
g walls_edge0
usemtl c_b58c65
v -0.5 -0.435 0
v -0.5 -0.565 0
v -0.5 -0.565 0.90625
v -0.5 -0.435 0.90625
f 101 102 103 104
g walls_edge0
usemtl c_b58c65
v -0.5 -0.565 0
v 0.5 -0.565 0
v 0.5 -0.565 0.90625
v -0.5 -0.565 0.90625
f 105 106 107 108
g walls_edge1
usemtl c_b58c65
v 1.5 -0.435 0.90625
v 0.5 -0.435 0.90625
v 0.5 -0.565 0.90625
v 1.5 -0.565 0.90625
f 109 110 111 112
g walls_edge1
usemtl c_b58c65
v 1.5 -0.565 0
v 0.5 -0.565 0
v 0.5 -0.435 0
v 1.5 -0.435 0
f 113 114 115 116
g walls_edge1
usemtl c_b58c65
v 1.5 -0.435 0
v 0.5 -0.435 0
v 0.5 -0.435 0.90625
v 1.5 -0.435 0.90625
f 117 118 119 120
g walls_edge1
usemtl c_b58c65
v 0.5 -0.565 0
v 1.5 -0.565 0
v 1.5 -0.565 0.90625
v 0.5 -0.565 0.90625
f 121 122 123 124
g walls_edge2
usemtl c_b58c65
v 2.5 -0.435 0.90625
v 1.5 -0.435 0.90625
v 1.5 -0.565 0.90625
v 2.5 -0.565 0.90625
f 125 126 127 128
g walls_edge2
usemtl c_b58c65
v 2.5 -0.565 0
v 1.5 -0.565 0
v 1.5 -0.435 0
v 2.5 -0.435 0
f 129 130 131 132
g walls_edge2
usemtl c_b58c65
v 2.5 -0.435 0
v 1.5 -0.435 0
v 1.5 -0.435 0.90625
v 2.5 -0.435 0.90625
f 133 134 135 136
g walls_edge2
usemtl c_b58c65
v 1.5 -0.565 0
v 2.5 -0.565 0
v 2.5 -0.565 0.90625
v 1.5 -0.565 0.90625
f 137 138 139 140
g walls_edge2
usemtl c_b58c65
v 2.5 -0.565 0
v 2.5 -0.435 0
v 2.5 -0.435 0.90625
v 2.5 -0.565 0.90625
f 141 142 143 144
g walls_edge3
usemtl c_b58c65
v -0.435 -0.5 0.90625
v -0.435 0.5 0.90625
v -0.565 0.5 0.90625
v -0.565 -0.5 0.90625
f 145 146 147 148
g walls_edge3
usemtl c_b58c65
v -0.565 -0.5 0
v -0.565 0.5 0
v -0.435 0.5 0
v -0.435 -0.5 0
f 149 150 151 152
g walls_edge3
usemtl c_b58c65
v -0.435 -0.5 0
v -0.435 0.5 0
v -0.435 0.5 0.90625
v -0.435 -0.5 0.90625
f 153 154 155 156
g walls_edge3
usemtl c_b58c65
v -0.565 0.5 0
v -0.565 -0.5 0
v -0.565 -0.5 0.90625
v -0.565 0.5 0.90625
f 157 158 159 160
g walls_edge3
usemtl c_b58c65
v -0.565 -0.5 0
v -0.435 -0.5 0
v -0.435 -0.5 0.90625
v -0.565 -0.5 0.90625
f 161 162 163 164
g walls_edge4
usemtl c_b58c65
v -0.435 0.5 0.90625
v -0.435 1.5 0.90625
v -0.565 1.5 0.90625
v -0.565 0.5 0.90625
f 165 166 167 168
g walls_edge4
usemtl c_b58c65
v -0.565 0.5 0
v -0.565 1.5 0
v -0.435 1.5 0
v -0.435 0.5 0
f 169 170 171 172
g walls_edge4
usemtl c_b58c65
v -0.435 0.5 0
v -0.435 1.5 0
v -0.435 1.5 0.90625
v -0.435 0.5 0.90625
f 173 174 175 176
g walls_edge4
usemtl c_b58c65
v -0.435 1.5 0
v -0.565 1.5 0
v -0.565 1.5 0.90625
v -0.435 1.5 0.90625
f 177 178 179 180
g walls_edge4
usemtl c_b58c65
v -0.565 1.5 0
v -0.565 0.5 0
v -0.565 0.5 0.90625
v -0.565 1.5 0.90625
f 181 182 183 184
g walls_edge5
usemtl c_b58c65
v 2.435 0.5 0.90625
v 2.435 -0.5 0.90625
v 2.565 -0.5 0.90625
v 2.565 0.5 0.90625
f 185 186 187 188
g walls_edge5
usemtl c_b58c65
v 2.565 0.5 0
v 2.565 -0.5 0
v 2.435 -0.5 0
v 2.435 0.5 0
f 189 190 191 192
g walls_edge5
usemtl c_b58c65
v 2.435 0.5 0
v 2.435 -0.5 0
v 2.435 -0.5 0.90625
v 2.435 0.5 0.90625
f 193 194 195 196
g walls_edge5
usemtl c_b58c65
v 2.435 -0.5 0
v 2.565 -0.5 0
v 2.565 -0.5 0.90625
v 2.435 -0.5 0.90625
f 197 198 199 200
g walls_edge5
usemtl c_b58c65
v 2.565 -0.5 0
v 2.565 0.5 0
v 2.565 0.5 0.90625
v 2.565 -0.5 0.90625
f 201 202 203 204
g walls_edge6
usemtl c_b58c65
v 2.435 1.5 0.90625
v 2.435 0.5 0.90625
v 2.565 0.5 0.90625
v 2.565 1.5 0.90625
f 205 206 207 208
g walls_edge6
usemtl c_b58c65
v 2.565 1.5 0
v 2.565 0.5 0
v 2.435 0.5 0
v 2.435 1.5 0
f 209 210 211 212
g walls_edge6
usemtl c_b58c65
v 2.435 1.5 0
v 2.435 0.5 0
v 2.435 0.5 0.90625
v 2.435 1.5 0.90625
f 213 214 215 216
g walls_edge6
usemtl c_b58c65
v 2.565 0.5 0
v 2.565 1.5 0
v 2.565 1.5 0.90625
v 2.565 0.5 0.90625
f 217 218 219 220
g walls_edge6
usemtl c_b58c65
v 2.565 1.5 0
v 2.435 1.5 0
v 2.435 1.5 0.90625
v 2.565 1.5 0.90625
f 221 222 223 224
g walls_edge7
usemtl c_b58c65
v -0.5 1.435 0.90625
v 0.5 1.435 0.90625
v 0.5 1.565 0.90625
v -0.5 1.565 0.90625
f 225 226 227 228
g walls_edge7
usemtl c_b58c65
v -0.5 1.565 0
v 0.5 1.565 0
v 0.5 1.435 0
v -0.5 1.435 0
f 229 230 231 232
g walls_edge7
usemtl c_b58c65
v -0.5 1.435 0
v 0.5 1.435 0
v 0.5 1.435 0.90625
v -0.5 1.435 0.90625
f 233 234 235 236
g walls_edge7
usemtl c_b58c65
v 0.5 1.435 0
v 0.5 1.565 0
v 0.5 1.565 0.90625
v 0.5 1.435 0.90625
f 237 238 239 240
g walls_edge7
usemtl c_b58c65
v 0.5 1.565 0
v -0.5 1.565 0
v -0.5 1.565 0.90625
v 0.5 1.565 0.90625
f 241 242 243 244
g walls_edge7
usemtl c_b58c65
v -0.5 1.565 0
v -0.5 1.435 0
v -0.5 1.435 0.90625
v -0.5 1.565 0.90625
f 245 246 247 248
g walls_edge8
usemtl c_b58c65
v 1.5 1.435 0.90625
v 2.5 1.435 0.90625
v 2.5 1.565 0.90625
v 1.5 1.565 0.90625
f 249 250 251 252
g walls_edge8
usemtl c_b58c65
v 1.5 1.565 0
v 2.5 1.565 0
v 2.5 1.435 0
v 1.5 1.435 0
f 253 254 255 256
g walls_edge8
usemtl c_b58c65
v 1.5 1.435 0
v 2.5 1.435 0
v 2.5 1.435 0.90625
v 1.5 1.435 0.90625
f 257 258 259 260
g walls_edge8
usemtl c_b58c65
v 2.5 1.435 0
v 2.5 1.565 0
v 2.5 1.565 0.90625
v 2.5 1.435 0.90625
f 261 262 263 264
g walls_edge8
usemtl c_b58c65
v 2.5 1.565 0
v 1.5 1.565 0
v 1.5 1.565 0.90625
v 2.5 1.565 0.90625
f 265 266 267 268
g walls_edge8
usemtl c_b58c65
v 1.5 1.565 0
v 1.5 1.435 0
v 1.5 1.435 0.90625
v 1.5 1.565 0.90625
f 269 270 271 272
g door_whole
usemtl c_b6814e
v 0.5 1.455 0.75
v 1.5 1.455 0.75
v 1.5 1.545 0.75
v 0.5 1.545 0.75
f 273 274 275 276
g door_whole
usemtl c_b6814e
v 0.5 1.545 0
v 1.5 1.545 0
v 1.5 1.455 0
v 0.5 1.455 0
f 277 278 279 280
g door_whole
usemtl c_b6814e
v 0.5 1.455 0
v 1.5 1.455 0
v 1.5 1.455 0.75
v 0.5 1.455 0.75
f 281 282 283 284
g door_whole
usemtl c_b6814e
v 1.5 1.455 0
v 1.5 1.545 0
v 1.5 1.545 0.75
v 1.5 1.455 0.75
f 285 286 287 288
g door_whole
usemtl c_b6814e
v 1.5 1.545 0
v 0.5 1.545 0
v 0.5 1.545 0.75
v 1.5 1.545 0.75
f 289 290 291 292
g door_whole
usemtl c_b6814e
v 0.5 1.545 0
v 0.5 1.455 0
v 0.5 1.455 0.75
v 0.5 1.545 0.75
f 293 294 295 296
g roof_tile0-0
usemtl c_639b91
v -0.5 -0.5 0.99625
v 0.5 -0.5 0.99625
v 0.5 0.5 1.43375
v -0.5 0.5 1.43375
f 297 298 299 300
g roof_tile0-0
usemtl c_639b91
v -0.5 0.5 0.90625
v 0.5 0.5 0.90625
v 0.5 -0.5 0.90625
v -0.5 -0.5 0.90625
f 301 302 303 304
g roof_tile0-0
usemtl c_639b91
v -0.5 -0.5 0.90625
v 0.5 -0.5 0.90625
v 0.5 -0.5 0.99625
v -0.5 -0.5 0.99625
f 305 306 307 308
g roof_tile0-0
usemtl c_639b91
v -0.5 0.5 0.90625
v -0.5 -0.5 0.90625
v -0.5 -0.5 0.99625
v -0.5 0.5 1.43375
f 309 310 311 312
g roof_tile1-0
usemtl c_639b91
v 0.5 -0.5 0.99625
v 1.5 -0.5 0.99625
v 1.5 0.5 1.43375
v 0.5 0.5 1.43375
f 313 314 315 316
g roof_tile1-0
usemtl c_639b91
v 0.5 0.5 0.90625
v 1.5 0.5 0.90625
v 1.5 -0.5 0.90625
v 0.5 -0.5 0.90625
f 317 318 319 320
g roof_tile1-0
usemtl c_639b91
v 0.5 -0.5 0.90625
v 1.5 -0.5 0.90625
v 1.5 -0.5 0.99625
v 0.5 -0.5 0.99625
f 321 322 323 324
g roof_tile2-0
usemtl c_639b91
v 1.5 -0.5 0.99625
v 2.5 -0.5 0.99625
v 2.5 0.5 1.43375
v 1.5 0.5 1.43375
f 325 326 327 328
g roof_tile2-0
usemtl c_639b91
v 1.5 0.5 0.90625
v 2.5 0.5 0.90625
v 2.5 -0.5 0.90625
v 1.5 -0.5 0.90625
f 329 330 331 332
g roof_tile2-0
usemtl c_639b91
v 1.5 -0.5 0.90625
v 2.5 -0.5 0.90625
v 2.5 -0.5 0.99625
v 1.5 -0.5 0.99625
f 333 334 335 336
g roof_tile2-0
usemtl c_639b91
v 2.5 -0.5 0.90625
v 2.5 0.5 0.90625
v 2.5 0.5 1.43375
v 2.5 -0.5 0.99625
f 337 338 339 340
g roof_tile0-1
usemtl c_639b91
v -0.5 0.5 1.43375
v 0.5 0.5 1.43375
v 0.5 1.5 0.99625
v -0.5 1.5 0.99625
f 341 342 343 344
g roof_tile0-1
usemtl c_639b91
v -0.5 1.5 0.90625
v 0.5 1.5 0.90625
v 0.5 0.5 0.90625
v -0.5 0.5 0.90625
f 345 346 347 348
g roof_tile0-1
usemtl c_639b91
v 0.5 1.5 0.90625
v -0.5 1.5 0.90625
v -0.5 1.5 0.99625
v 0.5 1.5 0.99625
f 349 350 351 352
g roof_tile0-1
usemtl c_639b91
v -0.5 1.5 0.90625
v -0.5 0.5 0.90625
v -0.5 0.5 1.43375
v -0.5 1.5 0.99625
f 353 354 355 356
g roof_tile1-1
usemtl c_639b91
v 0.5 0.5 1.43375
v 1.5 0.5 1.43375
v 1.5 1.5 0.99625
v 0.5 1.5 0.99625
f 357 358 359 360
g roof_tile1-1
usemtl c_639b91
v 0.5 1.5 0.90625
v 1.5 1.5 0.90625
v 1.5 0.5 0.90625
v 0.5 0.5 0.90625
f 361 362 363 364
g roof_tile1-1
usemtl c_639b91
v 1.5 1.5 0.90625
v 0.5 1.5 0.90625
v 0.5 1.5 0.99625
v 1.5 1.5 0.99625
f 365 366 367 368
g roof_tile2-1
usemtl c_639b91
v 1.5 0.5 1.43375
v 2.5 0.5 1.43375
v 2.5 1.5 0.99625
v 1.5 1.5 0.99625
f 369 370 371 372
g roof_tile2-1
usemtl c_639b91
v 1.5 1.5 0.90625
v 2.5 1.5 0.90625
v 2.5 0.5 0.90625
v 1.5 0.5 0.90625
f 373 374 375 376
g roof_tile2-1
usemtl c_639b91
v 2.5 0.5 0.90625
v 2.5 1.5 0.90625
v 2.5 1.5 0.99625
v 2.5 0.5 1.43375
f 377 378 379 380
g roof_tile2-1
usemtl c_639b91
v 2.5 1.5 0.90625
v 1.5 1.5 0.90625
v 1.5 1.5 0.99625
v 2.5 1.5 0.99625
f 381 382 383 384
