# WordMerge generated low-poly building; Z up
mtllib materials.mtl
g foundation_tile0-0
usemtl c_cda978
v -0.5 -0.5 0
v 0.5 -0.5 0
v 0.5 0.5 0
v -0.5 0.5 0
f 1 2 3 4
g foundation_tile0-0
usemtl c_cda978
v -0.5 0.5 -0.14
v 0.5 0.5 -0.14
v 0.5 -0.5 -0.14
v -0.5 -0.5 -0.14
f 5 6 7 8
g foundation_tile0-0
usemtl c_cda978
v -0.5 -0.5 -0.14
v 0.5 -0.5 -0.14
v 0.5 -0.5 0
v -0.5 -0.5 0
f 9 10 11 12
g foundation_tile0-0
usemtl c_cda978
v -0.5 0.5 -0.14
v -0.5 -0.5 -0.14
v -0.5 -0.5 0
v -0.5 0.5 0
f 13 14 15 16
g foundation_tile1-0
usemtl c_cda978
v 0.5 -0.5 0
v 1.5 -0.5 0
v 1.5 0.5 0
v 0.5 0.5 0
f 17 18 19 20
g foundation_tile1-0
usemtl c_cda978
v 0.5 0.5 -0.14
v 1.5 0.5 -0.14
v 1.5 -0.5 -0.14
v 0.5 -0.5 -0.14
f 21 22 23 24
g foundation_tile1-0
usemtl c_cda978
v 0.5 -0.5 -0.14
v 1.5 -0.5 -0.14
v 1.5 -0.5 0
v 0.5 -0.5 0
f 25 26 27 28
g foundation_tile2-0
usemtl c_cda978
v 1.5 -0.5 0
v 2.5 -0.5 0
v 2.5 0.5 0
v 1.5 0.5 0
f 29 30 31 32
g foundation_tile2-0
usemtl c_cda978
v 1.5 0.5 -0.14
v 2.5 0.5 -0.14
v 2.5 -0.5 -0.14
v 1.5 -0.5 -0.14
f 33 34 35 36
g foundation_tile2-0
usemtl c_cda978
v 1.5 -0.5 -0.14
v 2.5 -0.5 -0.14
v 2.5 -0.5 0
v 1.5 -0.5 0
f 37 38 39 40
g foundation_tile3-0
usemtl c_cda978
v 2.5 -0.5 0
v 3.5 -0.5 0
v 3.5 0.5 0
v 2.5 0.5 0
f 41 42 43 44
g foundation_tile3-0
usemtl c_cda978
v 2.5 0.5 -0.14
v 3.5 0.5 -0.14
v 3.5 -0.5 -0.14
v 2.5 -0.5 -0.14
f 45 46 47 48
g foundation_tile3-0
usemtl c_cda978
v 2.5 -0.5 -0.14
v 3.5 -0.5 -0.14
v 3.5 -0.5 0
v 2.5 -0.5 0
f 49 50 51 52
g foundation_tile3-0
usemtl c_cda978
v 3.5 -0.5 -0.14
v 3.5 0.5 -0.14
v 3.5 0.5 0
v 3.5 -0.5 0
f 53 54 55 56
g foundation_tile0-1
usemtl c_cda978
v -0.5 0.5 0
v 0.5 0.5 0
v 0.5 1.5 0
v -0.5 1.5 0
f 57 58 59 60
g foundation_tile0-1
usemtl c_cda978
v -0.5 1.5 -0.14
v 0.5 1.5 -0.14
v 0.5 0.5 -0.14
v -0.5 0.5 -0.14
f 61 62 63 64
g foundation_tile0-1
usemtl c_cda978
v -0.5 1.5 -0.14
v -0.5 0.5 -0.14
v -0.5 0.5 0
v -0.5 1.5 0
f 65 66 67 68
g foundation_tile1-1
usemtl c_cda978
v 0.5 0.5 0
v 1.5 0.5 0
v 1.5 1.5 0
v 0.5 1.5 0
f 69 70 71 72
g foundation_tile1-1
usemtl c_cda978
v 0.5 1.5 -0.14
v 1.5 1.5 -0.14
v 1.5 0.5 -0.14
v 0.5 0.5 -0.14
f 73 74 75 76
g foundation_tile2-1
usemtl c_cda978
v 1.5 0.5 0
v 2.5 0.5 0
v 2.5 1.5 0
v 1.5 1.5 0
f 77 78 79 80
g foundation_tile2-1
usemtl c_cda978
v 1.5 1.5 -0.14
v 2.5 1.5 -0.14
v 2.5 0.5 -0.14
v 1.5 0.5 -0.14
f 81 82 83 84
g foundation_tile3-1
usemtl c_cda978
v 2.5 0.5 0
v 3.5 0.5 0
v 3.5 1.5 0
v 2.5 1.5 0
f 85 86 87 88
g foundation_tile3-1
usemtl c_cda978
v 2.5 1.5 -0.14
v 3.5 1.5 -0.14
v 3.5 0.5 -0.14
v 2.5 0.5 -0.14
f 89 90 91 92
g foundation_tile3-1
usemtl c_cda978
v 3.5 0.5 -0.14
v 3.5 1.5 -0.14
v 3.5 1.5 0
v 3.5 0.5 0
f 93 94 95 96
g foundation_tile0-2
usemtl c_cda978
v -0.5 1.5 0
v 0.5 1.5 0
v 0.5 2.5 0
v -0.5 2.5 0
f 97 98 99 100
g foundation_tile0-2
usemtl c_cda978
v -0.5 2.5 -0.14
v 0.5 2.5 -0.14
v 0.5 1.5 -0.14
v -0.5 1.5 -0.14
f 101 102 103 104
g foundation_tile0-2
usemtl c_cda978
v 0.5 2.5 -0.14
v -0.5 2.5 -0.14
v -0.5 2.5 0
v 0.5 2.5 0
f 105 106 107 108
g foundation_tile0-2
usemtl c_cda978
v -0.5 2.5 -0.14
v -0.5 1.5 -0.14
v -0.5 1.5 0
v -0.5 2.5 0
f 109 110 111 112
g foundation_tile1-2
usemtl c_cda978
v 0.5 1.5 0
v 1.5 1.5 0
v 1.5 2.5 0
v 0.5 2.5 0
f 113 114 115 116
g foundation_tile1-2
usemtl c_cda978
v 0.5 2.5 -0.14
v 1.5 2.5 -0.14
v 1.5 1.5 -0.14
v 0.5 1.5 -0.14
f 117 118 119 120
g foundation_tile1-2
usemtl c_cda978
v 1.5 2.5 -0.14
v 0.5 2.5 -0.14
v 0.5 2.5 0
v 1.5 2.5 0
f 121 122 123 124
g foundation_tile2-2
usemtl c_cda978
v 1.5 1.5 0
v 2.5 1.5 0
v 2.5 2.5 0
v 1.5 2.5 0
f 125 126 127 128
g foundation_tile2-2
usemtl c_cda978
v 1.5 2.5 -0.14
v 2.5 2.5 -0.14
v 2.5 1.5 -0.14
v 1.5 1.5 -0.14
f 129 130 131 132
g foundation_tile2-2
usemtl c_cda978
v 2.5 2.5 -0.14
v 1.5 2.5 -0.14
v 1.5 2.5 0
v 2.5 2.5 0
f 133 134 135 136
g foundation_tile3-2
usemtl c_cda978
v 2.5 1.5 0
v 3.5 1.5 0
v 3.5 2.5 0
v 2.5 2.5 0
f 137 138 139 140
g foundation_tile3-2
usemtl c_cda978
v 2.5 2.5 -0.14
v 3.5 2.5 -0.14
v 3.5 1.5 -0.14
v 2.5 1.5 -0.14
f 141 142 143 144
g foundation_tile3-2
usemtl c_cda978
v 3.5 1.5 -0.14
v 3.5 2.5 -0.14
v 3.5 2.5 0
v 3.5 1.5 0
f 145 146 147 148
g foundation_tile3-2
usemtl c_cda978
v 3.5 2.5 -0.14
v 2.5 2.5 -0.14
v 2.5 2.5 0
v 3.5 2.5 0
f 149 150 151 152
g walls_edge0
usemtl c_d9c9a5
v 0.5 -0.435 0.90625
v -0.5 -0.435 0.90625
v -0.5 -0.565 0.90625
v 0.5 -0.565 0.90625
f 153 154 155 156
g walls_edge0
usemtl c_d9c9a5
v 0.5 -0.565 0
v -0.5 -0.565 0
v -0.5 -0.435 0
v 0.5 -0.435 0
f 157 158 159 160
g walls_edge0
usemtl c_d9c9a5
v 0.5 -0.435 0
v -0.5 -0.435 0
v -0.5 -0.435 0.90625
v 0.5 -0.435 0.90625
f 161 162 163 164
g walls_edge0
usemtl c_d9c9a5
v -0.5 -0.435 0
v -0.5 -0.565 0
v -0.5 -0.565 0.90625
v -0.5 -0.435 0.90625
f 165 166 167 168
g walls_edge0
usemtl c_d9c9a5
v -0.5 -0.565 0
v 0.5 -0.565 0
v 0.5 -0.565 0.90625
v -0.5 -0.565 0.90625
f 169 170 171 172
g walls_edge1
usemtl c_d9c9a5
v 1.5 -0.435 0.90625
v 0.5 -0.435 0.90625
v 0.5 -0.565 0.90625
v 1.5 -0.565 0.90625
f 173 174 175 176
g walls_edge1
usemtl c_d9c9a5
v 1.5 -0.565 0
v 0.5 -0.565 0
v 0.5 -0.435 0
v 1.5 -0.435 0
f 177 178 179 180
g walls_edge1
usemtl c_d9c9a5
v 1.5 -0.435 0
v 0.5 -0.435 0
v 0.5 -0.435 0.90625
v 1.5 -0.435 0.90625
f 181 182 183 184
g walls_edge1
usemtl c_d9c9a5
v 0.5 -0.565 0
v 1.5 -0.565 0
v 1.5 -0.565 0.90625
v 0.5 -0.565 0.90625
f 185 186 187 188
g walls_edge2
usemtl c_d9c9a5
v 2.5 -0.435 0.90625
v 1.5 -0.435 0.90625
v 1.5 -0.565 0.90625
v 2.5 -0.565 0.90625
f 189 190 191 192
g walls_edge2
usemtl c_d9c9a5
v 2.5 -0.565 0
v 1.5 -0.565 0
v 1.5 -0.435 0
v 2.5 -0.435 0
f 193 194 195 196
g walls_edge2
usemtl c_d9c9a5
v 2.5 -0.435 0
v 1.5 -0.435 0
v 1.5 -0.435 0.90625
v 2.5 -0.435 0.90625
f 197 198 199 200
g walls_edge2
usemtl c_d9c9a5
v 1.5 -0.565 0
v 2.5 -0.565 0
v 2.5 -0.565 0.90625
v 1.5 -0.565 0.90625
f 201 202 203 204
g walls_edge3
usemtl c_d9c9a5
v 3.5 -0.435 0.90625
v 2.5 -0.435 0.90625
v 2.5 -0.565 0.90625
v 3.5 -0.565 0.90625
f 205 206 207 208
g walls_edge3
usemtl c_d9c9a5
v 3.5 -0.565 0
v 2.5 -0.565 0
v 2.5 -0.435 0
v 3.5 -0.435 0
f 209 210 211 212
g walls_edge3
usemtl c_d9c9a5
v 3.5 -0.435 0
v 2.5 -0.435 0
v 2.5 -0.435 0.90625
v 3.5 -0.435 0.90625
f 213 214 215 216
g walls_edge3
usemtl c_d9c9a5
v 2.5 -0.565 0
v 3.5 -0.565 0
v 3.5 -0.565 0.90625
v 2.5 -0.565 0.90625
f 217 218 219 220
g walls_edge3
usemtl c_d9c9a5
v 3.5 -0.565 0
v 3.5 -0.435 0
v 3.5 -0.435 0.90625
v 3.5 -0.565 0.90625
f 221 222 223 224
g walls_edge4
usemtl c_d9c9a5
v -0.435 -0.5 0.90625
v -0.435 0.5 0.90625
v -0.565 0.5 0.90625
v -0.565 -0.5 0.90625
f 225 226 227 228
g walls_edge4
usemtl c_d9c9a5
v -0.565 -0.5 0
v -0.565 0.5 0
v -0.435 0.5 0
v -0.435 -0.5 0
f 229 230 231 232
g walls_edge4
usemtl c_d9c9a5
v -0.435 -0.5 0
v -0.435 0.5 0
v -0.435 0.5 0.90625
v -0.435 -0.5 0.90625
f 233 234 235 236
g walls_edge4
usemtl c_d9c9a5
v -0.565 0.5 0
v -0.565 -0.5 0
v -0.565 -0.5 0.90625
v -0.565 0.5 0.90625
f 237 238 239 240
g walls_edge4
usemtl c_d9c9a5
v -0.565 -0.5 0
v -0.435 -0.5 0
v -0.435 -0.5 0.90625
v -0.565 -0.5 0.90625
f 241 242 243 244
g walls_edge5
usemtl c_d9c9a5
v -0.435 0.5 0.90625
v -0.435 1.5 0.90625
v -0.565 1.5 0.90625
v -0.565 0.5 0.90625
f 245 246 247 248
g walls_edge5
usemtl c_d9c9a5
v -0.565 0.5 0
v -0.565 1.5 0
v -0.435 1.5 0
v -0.435 0.5 0
f 249 250 251 252
g walls_edge5
usemtl c_d9c9a5
v -0.435 0.5 0
v -0.435 1.5 0
v -0.435 1.5 0.90625
v -0.435 0.5 0.90625
f 253 254 255 256
g walls_edge5
usemtl c_d9c9a5
v -0.565 1.5 0
v -0.565 0.5 0
v -0.565 0.5 0.90625
v -0.565 1.5 0.90625
f 257 258 259 260
g walls_edge6
usemtl c_d9c9a5
v -0.435 1.5 0.90625
v -0.435 2.5 0.90625
v -0.565 2.5 0.90625
v -0.565 1.5 0.90625
f 261 262 263 264
g walls_edge6
usemtl c_d9c9a5
v -0.565 1.5 0
v -0.565 2.5 0
v -0.435 2.5 0
v -0.435 1.5 0
f 265 266 267 268
g walls_edge6
usemtl c_d9c9a5
v -0.435 1.5 0
v -0.435 2.5 0
v -0.435 2.5 0.90625
v -0.435 1.5 0.90625
f 269 270 271 272
g walls_edge6
usemtl c_d9c9a5
v -0.435 2.5 0
v -0.565 2.5 0
v -0.565 2.5 0.90625
v -0.435 2.5 0.90625
f 273 274 275 276
g walls_edge6
usemtl c_d9c9a5
v -0.565 2.5 0
v -0.565 1.5 0
v -0.565 1.5 0.90625
v -0.565 2.5 0.90625
f 277 278 279 280
g walls_edge7
usemtl c_d9c9a5
v 3.435 0.5 0.90625
v 3.435 -0.5 0.90625
v 3.565 -0.5 0.90625
v 3.565 0.5 0.90625
f 281 282 283 284
g walls_edge7
usemtl c_d9c9a5
v 3.565 0.5 0
v 3.565 -0.5 0
v 3.435 -0.5 0
v 3.435 0.5 0
f 285 286 287 288
g walls_edge7
usemtl c_d9c9a5
v 3.435 0.5 0
v 3.435 -0.5 0
v 3.435 -0.5 0.90625
v 3.435 0.5 0.90625
f 289 290 291 292
g walls_edge7
usemtl c_d9c9a5
v 3.435 -0.5 0
v 3.565 -0.5 0
v 3.565 -0.5 0.90625
v 3.435 -0.5 0.90625
f 293 294 295 296
g walls_edge7
usemtl c_d9c9a5
v 3.565 -0.5 0
v 3.565 0.5 0
v 3.565 0.5 0.90625
v 3.565 -0.5 0.90625
f 297 298 299 300
g walls_edge8
usemtl c_d9c9a5
v 3.435 1.5 0.90625
v 3.435 0.5 0.90625
v 3.565 0.5 0.90625
v 3.565 1.5 0.90625
f 301 302 303 304
g walls_edge8
usemtl c_d9c9a5
v 3.565 1.5 0
v 3.565 0.5 0
v 3.435 0.5 0
v 3.435 1.5 0
f 305 306 307 308
g walls_edge8
usemtl c_d9c9a5
v 3.435 1.5 0
v 3.435 0.5 0
v 3.435 0.5 0.90625
v 3.435 1.5 0.90625
f 309 310 311 312
g walls_edge8
usemtl c_d9c9a5
v 3.565 0.5 0
v 3.565 1.5 0
v 3.565 1.5 0.90625
v 3.565 0.5 0.90625
f 313 314 315 316
g walls_edge9
usemtl c_d9c9a5
v 3.435 2.5 0.90625
v 3.435 1.5 0.90625
v 3.565 1.5 0.90625
v 3.565 2.5 0.90625
f 317 318 319 320
g walls_edge9
usemtl c_d9c9a5
v 3.565 2.5 0
v 3.565 1.5 0
v 3.435 1.5 0
v 3.435 2.5 0
f 321 322 323 324
g walls_edge9
usemtl c_d9c9a5
v 3.435 2.5 0
v 3.435 1.5 0
v 3.435 1.5 0.90625
v 3.435 2.5 0.90625
f 325 326 327 328
g walls_edge9
usemtl c_d9c9a5
v 3.565 1.5 0
v 3.565 2.5 0
v 3.565 2.5 0.90625
v 3.565 1.5 0.90625
f 329 330 331 332
g walls_edge9
usemtl c_d9c9a5
v 3.565 2.5 0
v 3.435 2.5 0
v 3.435 2.5 0.90625
v 3.565 2.5 0.90625
f 333 334 335 336
g walls_edge10
usemtl c_d9c9a5
v -0.5 2.435 0.90625
v 0.5 2.435 0.90625
v 0.5 2.565 0.90625
v -0.5 2.565 0.90625
f 337 338 339 340
g walls_edge10
usemtl c_d9c9a5
v -0.5 2.565 0
v 0.5 2.565 0
v 0.5 2.435 0
v -0.5 2.435 0
f 341 342 343 344
g walls_edge10
usemtl c_d9c9a5
v -0.5 2.435 0
v 0.5 2.435 0
v 0.5 2.435 0.90625
v -0.5 2.435 0.90625
f 345 346 347 348
g walls_edge10
usemtl c_d9c9a5
v 0.5 2.565 0
v -0.5 2.565 0
v -0.5 2.565 0.90625
v 0.5 2.565 0.90625
f 349 350 351 352
g walls_edge10
usemtl c_d9c9a5
v -0.5 2.565 0
v -0.5 2.435 0
v -0.5 2.435 0.90625
v -0.5 2.565 0.90625
f 353 354 355 356
g walls_edge11
usemtl c_d9c9a5
v 0.5 2.435 0.90625
v 1.5 2.435 0.90625
v 1.5 2.565 0.90625
v 0.5 2.565 0.90625
f 357 358 359 360
g walls_edge11
usemtl c_d9c9a5
v 0.5 2.565 0
v 1.5 2.565 0
v 1.5 2.435 0
v 0.5 2.435 0
f 361 362 363 364
g walls_edge11
usemtl c_d9c9a5
v 0.5 2.435 0
v 1.5 2.435 0
v 1.5 2.435 0.90625
v 0.5 2.435 0.90625
f 365 366 367 368
g walls_edge11
usemtl c_d9c9a5
v 1.5 2.435 0
v 1.5 2.565 0
v 1.5 2.565 0.90625
v 1.5 2.435 0.90625
f 369 370 371 372
g walls_edge11
usemtl c_d9c9a5
v 1.5 2.565 0
v 0.5 2.565 0
v 0.5 2.565 0.90625
v 1.5 2.565 0.90625
f 373 374 375 376
g walls_edge12
usemtl c_d9c9a5
v 2.5 2.435 0.90625
v 3.5 2.435 0.90625
v 3.5 2.565 0.90625
v 2.5 2.565 0.90625
f 377 378 379 380
g walls_edge12
usemtl c_d9c9a5
v 2.5 2.565 0
v 3.5 2.565 0
v 3.5 2.435 0
v 2.5 2.435 0
f 381 382 383 384
g walls_edge12
usemtl c_d9c9a5
v 2.5 2.435 0
v 3.5 2.435 0
v 3.5 2.435 0.90625
v 2.5 2.435 0.90625
f 385 386 387 388
g walls_edge12
usemtl c_d9c9a5
v 3.5 2.435 0
v 3.5 2.565 0
v 3.5 2.565 0.90625
v 3.5 2.435 0.90625
f 389 390 391 392
g walls_edge12
usemtl c_d9c9a5
v 3.5 2.565 0
v 2.5 2.565 0
v 2.5 2.565 0.90625
v 3.5 2.565 0.90625
f 393 394 395 396
g walls_edge12
usemtl c_d9c9a5
v 2.5 2.565 0
v 2.5 2.435 0
v 2.5 2.435 0.90625
v 2.5 2.565 0.90625
f 397 398 399 400
g door_whole
usemtl c_b6814e
v 1.5 2.455 0.75
v 2.5 2.455 0.75
v 2.5 2.545 0.75
v 1.5 2.545 0.75
f 401 402 403 404
g door_whole
usemtl c_b6814e
v 1.5 2.545 0
v 2.5 2.545 0
v 2.5 2.455 0
v 1.5 2.455 0
f 405 406 407 408
g door_whole
usemtl c_b6814e
v 1.5 2.455 0
v 2.5 2.455 0
v 2.5 2.455 0.75
v 1.5 2.455 0.75
f 409 410 411 412
g door_whole
usemtl c_b6814e
v 2.5 2.455 0
v 2.5 2.545 0
v 2.5 2.545 0.75
v 2.5 2.455 0.75
f 413 414 415 416
g door_whole
usemtl c_b6814e
v 2.5 2.545 0
v 1.5 2.545 0
v 1.5 2.545 0.75
v 2.5 2.545 0.75
f 417 418 419 420
g door_whole
usemtl c_b6814e
v 1.5 2.545 0
v 1.5 2.455 0
v 1.5 2.455 0.75
v 1.5 2.545 0.75
f 421 422 423 424
g roof_tile0-0
usemtl c_718e7e
v -0.5 -0.5 0.99625
v 0.5 -0.5 0.99625
v 0.5 0.5 1.4129166666666668
v -0.5 0.5 1.4129166666666668
f 425 426 427 428
g roof_tile0-0
usemtl c_718e7e
v -0.5 0.5 0.90625
v 0.5 0.5 0.90625
v 0.5 -0.5 0.90625
v -0.5 -0.5 0.90625
f 429 430 431 432
g roof_tile0-0
usemtl c_718e7e
v -0.5 -0.5 0.90625
v 0.5 -0.5 0.90625
v 0.5 -0.5 0.99625
v -0.5 -0.5 0.99625
f 433 434 435 436
g roof_tile0-0
usemtl c_718e7e
v -0.5 0.5 0.90625
v -0.5 -0.5 0.90625
v -0.5 -0.5 0.99625
v -0.5 0.5 1.4129166666666668
f 437 438 439 440
g roof_tile1-0
usemtl c_718e7e
v 0.5 -0.5 0.99625
v 1.5 -0.5 0.99625
v 1.5 0.5 1.4129166666666668
v 0.5 0.5 1.4129166666666668
f 441 442 443 444
g roof_tile1-0
usemtl c_718e7e
v 0.5 0.5 0.90625
v 1.5 0.5 0.90625
v 1.5 -0.5 0.90625
v 0.5 -0.5 0.90625
f 445 446 447 448
g roof_tile1-0
usemtl c_718e7e
v 0.5 -0.5 0.90625
v 1.5 -0.5 0.90625
v 1.5 -0.5 0.99625
v 0.5 -0.5 0.99625
f 449 450 451 452
g roof_tile2-0
usemtl c_718e7e
v 1.5 -0.5 0.99625
v 2.5 -0.5 0.99625
v 2.5 0.5 1.4129166666666668
v 1.5 0.5 1.4129166666666668
f 453 454 455 456
g roof_tile2-0
usemtl c_718e7e
v 1.5 0.5 0.90625
v 2.5 0.5 0.90625
v 2.5 -0.5 0.90625
v 1.5 -0.5 0.90625
f 457 458 459 460
g roof_tile2-0
usemtl c_718e7e
v 1.5 -0.5 0.90625
v 2.5 -0.5 0.90625
v 2.5 -0.5 0.99625
v 1.5 -0.5 0.99625
f 461 462 463 464
g roof_tile3-0
usemtl c_718e7e
v 2.5 -0.5 0.99625
v 3.5 -0.5 0.99625
v 3.5 0.5 1.4129166666666668
v 2.5 0.5 1.4129166666666668
f 465 466 467 468
g roof_tile3-0
usemtl c_718e7e
v 2.5 0.5 0.90625
v 3.5 0.5 0.90625
v 3.5 -0.5 0.90625
v 2.5 -0.5 0.90625
f 469 470 471 472
g roof_tile3-0
usemtl c_718e7e
v 2.5 -0.5 0.90625
v 3.5 -0.5 0.90625
v 3.5 -0.5 0.99625
v 2.5 -0.5 0.99625
f 473 474 475 476
g roof_tile3-0
usemtl c_718e7e
v 3.5 -0.5 0.90625
v 3.5 0.5 0.90625
v 3.5 0.5 1.4129166666666668
v 3.5 -0.5 0.99625
f 477 478 479 480
g roof_tile0-1
usemtl c_718e7e
v -0.5 0.5 1.4129166666666668
v 0.5 0.5 1.4129166666666668
v 0.5 1 1.62125
v -0.5 1 1.62125
f 481 482 483 484
g roof_tile0-1
usemtl c_718e7e
v -0.5 1 0.90625
v 0.5 1 0.90625
v 0.5 0.5 0.90625
v -0.5 0.5 0.90625
f 485 486 487 488
g roof_tile0-1
usemtl c_718e7e
v -0.5 1 0.90625
v -0.5 0.5 0.90625
v -0.5 0.5 1.4129166666666668
v -0.5 1 1.62125
f 489 490 491 492
g roof_tile0-1
usemtl c_718e7e
v -0.5 1 1.62125
v 0.5 1 1.62125
v 0.5 1.5 1.4129166666666668
v -0.5 1.5 1.4129166666666668
f 493 494 495 496
g roof_tile0-1
usemtl c_718e7e
v -0.5 1.5 0.90625
v 0.5 1.5 0.90625
v 0.5 1 0.90625
v -0.5 1 0.90625
f 497 498 499 500
g roof_tile0-1
usemtl c_718e7e
v -0.5 1.5 0.90625
v -0.5 1 0.90625
v -0.5 1 1.62125
v -0.5 1.5 1.4129166666666668
f 501 502 503 504
g roof_tile1-1
usemtl c_718e7e
v 0.5 0.5 1.4129166666666668
v 1.5 0.5 1.4129166666666668
v 1.5 1 1.62125
v 0.5 1 1.62125
f 505 506 507 508
g roof_tile1-1
usemtl c_718e7e
v 0.5 1 0.90625
v 1.5 1 0.90625
v 1.5 0.5 0.90625
v 0.5 0.5 0.90625
f 509 510 511 512
g roof_tile1-1
usemtl c_718e7e
v 0.5 1 1.62125
v 1.5 1 1.62125
v 1.5 1.5 1.4129166666666668
v 0.5 1.5 1.4129166666666668
f 513 514 515 516
g roof_tile1-1
usemtl c_718e7e
v 0.5 1.5 0.90625
v 1.5 1.5 0.90625
v 1.5 1 0.90625
v 0.5 1 0.90625
f 517 518 519 520
g roof_tile2-1
usemtl c_718e7e
v 1.5 0.5 1.4129166666666668
v 2.5 0.5 1.4129166666666668
v 2.5 1 1.62125
v 1.5 1 1.62125
f 521 522 523 524
g roof_tile2-1
usemtl c_718e7e
v 1.5 1 0.90625
v 2.5 1 0.90625
v 2.5 0.5 0.90625
v 1.5 0.5 0.90625
f 525 526 527 528
g roof_tile2-1
usemtl c_718e7e
v 1.5 1 1.62125
v 2.5 1 1.62125
v 2.5 1.5 1.4129166666666668
v 1.5 1.5 1.4129166666666668
f 529 530 531 532
g roof_tile2-1
usemtl c_718e7e
v 1.5 1.5 0.90625
v 2.5 1.5 0.90625
v 2.5 1 0.90625
v 1.5 1 0.90625
f 533 534 535 536
g roof_tile3-1
usemtl c_718e7e
v 2.5 0.5 1.4129166666666668
v 3.5 0.5 1.4129166666666668
v 3.5 1 1.62125
v 2.5 1 1.62125
f 537 538 539 540
g roof_tile3-1
usemtl c_718e7e
v 2.5 1 0.90625
v 3.5 1 0.90625
v 3.5 0.5 0.90625
v 2.5 0.5 0.90625
f 541 542 543 544
g roof_tile3-1
usemtl c_718e7e
v 3.5 0.5 0.90625
v 3.5 1 0.90625
v 3.5 1 1.62125
v 3.5 0.5 1.4129166666666668
f 545 546 547 548
g roof_tile3-1
usemtl c_718e7e
v 2.5 1 1.62125
v 3.5 1 1.62125
v 3.5 1.5 1.4129166666666668
v 2.5 1.5 1.4129166666666668
f 549 550 551 552
g roof_tile3-1
usemtl c_718e7e
v 2.5 1.5 0.90625
v 3.5 1.5 0.90625
v 3.5 1 0.90625
v 2.5 1 0.90625
f 553 554 555 556
g roof_tile3-1
usemtl c_718e7e
v 3.5 1 0.90625
v 3.5 1.5 0.90625
v 3.5 1.5 1.4129166666666668
v 3.5 1 1.62125
f 557 558 559 560
g roof_tile0-2
usemtl c_718e7e
v -0.5 1.5 1.4129166666666668
v 0.5 1.5 1.4129166666666668
v 0.5 2.5 0.99625
v -0.5 2.5 0.99625
f 561 562 563 564
g roof_tile0-2
usemtl c_718e7e
v -0.5 2.5 0.90625
v 0.5 2.5 0.90625
v 0.5 1.5 0.90625
v -0.5 1.5 0.90625
f 565 566 567 568
g roof_tile0-2
usemtl c_718e7e
v 0.5 2.5 0.90625
v -0.5 2.5 0.90625
v -0.5 2.5 0.99625
v 0.5 2.5 0.99625
f 569 570 571 572
g roof_tile0-2
usemtl c_718e7e
v -0.5 2.5 0.90625
v -0.5 1.5 0.90625
v -0.5 1.5 1.4129166666666668
v -0.5 2.5 0.99625
f 573 574 575 576
g roof_tile1-2
usemtl c_718e7e
v 0.5 1.5 1.4129166666666668
v 1.5 1.5 1.4129166666666668
v 1.5 2.5 0.99625
v 0.5 2.5 0.99625
f 577 578 579 580
g roof_tile1-2
usemtl c_718e7e
v 0.5 2.5 0.90625
v 1.5 2.5 0.90625
v 1.5 1.5 0.90625
v 0.5 1.5 0.90625
f 581 582 583 584
g roof_tile1-2
usemtl c_718e7e
v 1.5 2.5 0.90625
v 0.5 2.5 0.90625
v 0.5 2.5 0.99625
v 1.5 2.5 0.99625
f 585 586 587 588
g roof_tile2-2
usemtl c_718e7e
v 1.5 1.5 1.4129166666666668
v 2.5 1.5 1.4129166666666668
v 2.5 2.5 0.99625
v 1.5 2.5 0.99625
f 589 590 591 592
g roof_tile2-2
usemtl c_718e7e
v 1.5 2.5 0.90625
v 2.5 2.5 0.90625
v 2.5 1.5 0.90625
v 1.5 1.5 0.90625
f 593 594 595 596
g roof_tile2-2
usemtl c_718e7e
v 2.5 2.5 0.90625
v 1.5 2.5 0.90625
v 1.5 2.5 0.99625
v 2.5 2.5 0.99625
f 597 598 599 600
g roof_tile3-2
usemtl c_718e7e
v 2.5 1.5 1.4129166666666668
v 3.5 1.5 1.4129166666666668
v 3.5 2.5 0.99625
v 2.5 2.5 0.99625
f 601 602 603 604
g roof_tile3-2
usemtl c_718e7e
v 2.5 2.5 0.90625
v 3.5 2.5 0.90625
v 3.5 1.5 0.90625
v 2.5 1.5 0.90625
f 605 606 607 608
g roof_tile3-2
usemtl c_718e7e
v 3.5 1.5 0.90625
v 3.5 2.5 0.90625
v 3.5 2.5 0.99625
v 3.5 1.5 1.4129166666666668
f 609 610 611 612
g roof_tile3-2
usemtl c_718e7e
v 3.5 2.5 0.90625
v 2.5 2.5 0.90625
v 2.5 2.5 0.99625
v 3.5 2.5 0.99625
f 613 614 615 616
