# WordMerge generated low-poly building; Z up
mtllib materials.mtl
g foundation_tile0-0
usemtl c_d9c5ae
v -0.5 -0.5 0
v 0.5 -0.5 0
v 0.5 0.5 0
v -0.5 0.5 0
f 1 2 3 4
g foundation_tile0-0
usemtl c_d9c5ae
v -0.5 0.5 -0.14
v 0.5 0.5 -0.14
v 0.5 -0.5 -0.14
v -0.5 -0.5 -0.14
f 5 6 7 8
g foundation_tile0-0
usemtl c_d9c5ae
v -0.5 -0.5 -0.14
v 0.5 -0.5 -0.14
v 0.5 -0.5 0
v -0.5 -0.5 0
f 9 10 11 12
g foundation_tile0-0
usemtl c_d9c5ae
v -0.5 0.5 -0.14
v -0.5 -0.5 -0.14
v -0.5 -0.5 0
v -0.5 0.5 0
f 13 14 15 16
g foundation_tile1-0
usemtl c_d9c5ae
v 0.5 -0.5 0
v 1.5 -0.5 0
v 1.5 0.5 0
v 0.5 0.5 0
f 17 18 19 20
g foundation_tile1-0
usemtl c_d9c5ae
v 0.5 0.5 -0.14
v 1.5 0.5 -0.14
v 1.5 -0.5 -0.14
v 0.5 -0.5 -0.14
f 21 22 23 24
g foundation_tile1-0
usemtl c_d9c5ae
v 0.5 -0.5 -0.14
v 1.5 -0.5 -0.14
v 1.5 -0.5 0
v 0.5 -0.5 0
f 25 26 27 28
g foundation_tile2-0
usemtl c_d9c5ae
v 1.5 -0.5 0
v 2.5 -0.5 0
v 2.5 0.5 0
v 1.5 0.5 0
f 29 30 31 32
g foundation_tile2-0
usemtl c_d9c5ae
v 1.5 0.5 -0.14
v 2.5 0.5 -0.14
v 2.5 -0.5 -0.14
v 1.5 -0.5 -0.14
f 33 34 35 36
g foundation_tile2-0
usemtl c_d9c5ae
v 1.5 -0.5 -0.14
v 2.5 -0.5 -0.14
v 2.5 -0.5 0
v 1.5 -0.5 0
f 37 38 39 40
g foundation_tile3-0
usemtl c_d9c5ae
v 2.5 -0.5 0
v 3.5 -0.5 0
v 3.5 0.5 0
v 2.5 0.5 0
f 41 42 43 44
g foundation_tile3-0
usemtl c_d9c5ae
v 2.5 0.5 -0.14
v 3.5 0.5 -0.14
v 3.5 -0.5 -0.14
v 2.5 -0.5 -0.14
f 45 46 47 48
g foundation_tile3-0
usemtl c_d9c5ae
v 2.5 -0.5 -0.14
v 3.5 -0.5 -0.14
v 3.5 -0.5 0
v 2.5 -0.5 0
f 49 50 51 52
g foundation_tile4-0
usemtl c_d9c5ae
v 3.5 -0.5 0
v 4.5 -0.5 0
v 4.5 0.5 0
v 3.5 0.5 0
f 53 54 55 56
g foundation_tile4-0
usemtl c_d9c5ae
v 3.5 0.5 -0.14
v 4.5 0.5 -0.14
v 4.5 -0.5 -0.14
v 3.5 -0.5 -0.14
f 57 58 59 60
g foundation_tile4-0
usemtl c_d9c5ae
v 3.5 -0.5 -0.14
v 4.5 -0.5 -0.14
v 4.5 -0.5 0
v 3.5 -0.5 0
f 61 62 63 64
g foundation_tile4-0
usemtl c_d9c5ae
v 4.5 -0.5 -0.14
v 4.5 0.5 -0.14
v 4.5 0.5 0
v 4.5 -0.5 0
f 65 66 67 68
g foundation_tile0-1
usemtl c_d9c5ae
v -0.5 0.5 0
v 0.5 0.5 0
v 0.5 1.5 0
v -0.5 1.5 0
f 69 70 71 72
g foundation_tile0-1
usemtl c_d9c5ae
v -0.5 1.5 -0.14
v 0.5 1.5 -0.14
v 0.5 0.5 -0.14
v -0.5 0.5 -0.14
f 73 74 75 76
g foundation_tile0-1
usemtl c_d9c5ae
v -0.5 1.5 -0.14
v -0.5 0.5 -0.14
v -0.5 0.5 0
v -0.5 1.5 0
f 77 78 79 80
g foundation_tile1-1
usemtl c_d9c5ae
v 0.5 0.5 0
v 1.5 0.5 0
v 1.5 1.5 0
v 0.5 1.5 0
f 81 82 83 84
g foundation_tile1-1
usemtl c_d9c5ae
v 0.5 1.5 -0.14
v 1.5 1.5 -0.14
v 1.5 0.5 -0.14
v 0.5 0.5 -0.14
f 85 86 87 88
g foundation_tile2-1
usemtl c_d9c5ae
v 1.5 0.5 0
v 2.5 0.5 0
v 2.5 1.5 0
v 1.5 1.5 0
f 89 90 91 92
g foundation_tile2-1
usemtl c_d9c5ae
v 1.5 1.5 -0.14
v 2.5 1.5 -0.14
v 2.5 0.5 -0.14
v 1.5 0.5 -0.14
f 93 94 95 96
g foundation_tile2-1
usemtl c_d9c5ae
v 2.5 1.5 -0.14
v 1.5 1.5 -0.14
v 1.5 1.5 0
v 2.5 1.5 0
f 97 98 99 100
g foundation_tile3-1
usemtl c_d9c5ae
v 2.5 0.5 0
v 3.5 0.5 0
v 3.5 1.5 0
v 2.5 1.5 0
f 101 102 103 104
g foundation_tile3-1
usemtl c_d9c5ae
v 2.5 1.5 -0.14
v 3.5 1.5 -0.14
v 3.5 0.5 -0.14
v 2.5 0.5 -0.14
f 105 106 107 108
g foundation_tile4-1
usemtl c_d9c5ae
v 3.5 0.5 0
v 4.5 0.5 0
v 4.5 1.5 0
v 3.5 1.5 0
f 109 110 111 112
g foundation_tile4-1
usemtl c_d9c5ae
v 3.5 1.5 -0.14
v 4.5 1.5 -0.14
v 4.5 0.5 -0.14
v 3.5 0.5 -0.14
f 113 114 115 116
g foundation_tile4-1
usemtl c_d9c5ae
v 4.5 0.5 -0.14
v 4.5 1.5 -0.14
v 4.5 1.5 0
v 4.5 0.5 0
f 117 118 119 120
g foundation_tile0-2
usemtl c_d9c5ae
v -0.5 1.5 0
v 0.5 1.5 0
v 0.5 2.5 0
v -0.5 2.5 0
f 121 122 123 124
g foundation_tile0-2
usemtl c_d9c5ae
v -0.5 2.5 -0.14
v 0.5 2.5 -0.14
v 0.5 1.5 -0.14
v -0.5 1.5 -0.14
f 125 126 127 128
g foundation_tile0-2
usemtl c_d9c5ae
v -0.5 2.5 -0.14
v -0.5 1.5 -0.14
v -0.5 1.5 0
v -0.5 2.5 0
f 129 130 131 132
g foundation_tile1-2
usemtl c_d9c5ae
v 0.5 1.5 0
v 1.5 1.5 0
v 1.5 2.5 0
v 0.5 2.5 0
f 133 134 135 136
g foundation_tile1-2
usemtl c_d9c5ae
v 0.5 2.5 -0.14
v 1.5 2.5 -0.14
v 1.5 1.5 -0.14
v 0.5 1.5 -0.14
f 137 138 139 140
g foundation_tile1-2
usemtl c_d9c5ae
v 1.5 1.5 -0.14
v 1.5 2.5 -0.14
v 1.5 2.5 0
v 1.5 1.5 0
f 141 142 143 144
g foundation_tile3-2
usemtl c_d9c5ae
v 2.5 1.5 0
v 3.5 1.5 0
v 3.5 2.5 0
v 2.5 2.5 0
f 145 146 147 148
g foundation_tile3-2
usemtl c_d9c5ae
v 2.5 2.5 -0.14
v 3.5 2.5 -0.14
v 3.5 1.5 -0.14
v 2.5 1.5 -0.14
f 149 150 151 152
g foundation_tile3-2
usemtl c_d9c5ae
v 2.5 2.5 -0.14
v 2.5 1.5 -0.14
v 2.5 1.5 0
v 2.5 2.5 0
f 153 154 155 156
g foundation_tile4-2
usemtl c_d9c5ae
v 3.5 1.5 0
v 4.5 1.5 0
v 4.5 2.5 0
v 3.5 2.5 0
f 157 158 159 160
g foundation_tile4-2
usemtl c_d9c5ae
v 3.5 2.5 -0.14
v 4.5 2.5 -0.14
v 4.5 1.5 -0.14
v 3.5 1.5 -0.14
f 161 162 163 164
g foundation_tile4-2
usemtl c_d9c5ae
v 4.5 1.5 -0.14
v 4.5 2.5 -0.14
v 4.5 2.5 0
v 4.5 1.5 0
f 165 166 167 168
g foundation_tile0-3
usemtl c_d9c5ae
v -0.5 2.5 0
v 0.5 2.5 0
v 0.5 3.5 0
v -0.5 3.5 0
f 169 170 171 172
g foundation_tile0-3
usemtl c_d9c5ae
v -0.5 3.5 -0.14
v 0.5 3.5 -0.14
v 0.5 2.5 -0.14
v -0.5 2.5 -0.14
f 173 174 175 176
g foundation_tile0-3
usemtl c_d9c5ae
v 0.5 3.5 -0.14
v -0.5 3.5 -0.14
v -0.5 3.5 0
v 0.5 3.5 0
f 177 178 179 180
g foundation_tile0-3
usemtl c_d9c5ae
v -0.5 3.5 -0.14
v -0.5 2.5 -0.14
v -0.5 2.5 0
v -0.5 3.5 0
f 181 182 183 184
g foundation_tile1-3
usemtl c_d9c5ae
v 0.5 2.5 0
v 1.5 2.5 0
v 1.5 3.5 0
v 0.5 3.5 0
f 185 186 187 188
g foundation_tile1-3
usemtl c_d9c5ae
v 0.5 3.5 -0.14
v 1.5 3.5 -0.14
v 1.5 2.5 -0.14
v 0.5 2.5 -0.14
f 189 190 191 192
g foundation_tile1-3
usemtl c_d9c5ae
v 1.5 2.5 -0.14
v 1.5 3.5 -0.14
v 1.5 3.5 0
v 1.5 2.5 0
f 193 194 195 196
g foundation_tile1-3
usemtl c_d9c5ae
v 1.5 3.5 -0.14
v 0.5 3.5 -0.14
v 0.5 3.5 0
v 1.5 3.5 0
f 197 198 199 200
g foundation_tile3-3
usemtl c_d9c5ae
v 2.5 2.5 0
v 3.5 2.5 0
v 3.5 3.5 0
v 2.5 3.5 0
f 201 202 203 204
g foundation_tile3-3
usemtl c_d9c5ae
v 2.5 3.5 -0.14
v 3.5 3.5 -0.14
v 3.5 2.5 -0.14
v 2.5 2.5 -0.14
f 205 206 207 208
g foundation_tile3-3
usemtl c_d9c5ae
v 3.5 3.5 -0.14
v 2.5 3.5 -0.14
v 2.5 3.5 0
v 3.5 3.5 0
f 209 210 211 212
g foundation_tile3-3
usemtl c_d9c5ae
v 2.5 3.5 -0.14
v 2.5 2.5 -0.14
v 2.5 2.5 0
v 2.5 3.5 0
f 213 214 215 216
g foundation_tile4-3
usemtl c_d9c5ae
v 3.5 2.5 0
v 4.5 2.5 0
v 4.5 3.5 0
v 3.5 3.5 0
f 217 218 219 220
g foundation_tile4-3
usemtl c_d9c5ae
v 3.5 3.5 -0.14
v 4.5 3.5 -0.14
v 4.5 2.5 -0.14
v 3.5 2.5 -0.14
f 221 222 223 224
g foundation_tile4-3
usemtl c_d9c5ae
v 4.5 2.5 -0.14
v 4.5 3.5 -0.14
v 4.5 3.5 0
v 4.5 2.5 0
f 225 226 227 228
g foundation_tile4-3
usemtl c_d9c5ae
v 4.5 3.5 -0.14
v 3.5 3.5 -0.14
v 3.5 3.5 0
v 4.5 3.5 0
f 229 230 231 232
g walls_edge0
usemtl c_c3c0b3
v 0.5 -0.435 0.90625
v -0.5 -0.435 0.90625
v -0.5 -0.565 0.90625
v 0.5 -0.565 0.90625
f 233 234 235 236
g walls_edge0
usemtl c_c3c0b3
v 0.5 -0.565 0
v -0.5 -0.565 0
v -0.5 -0.435 0
v 0.5 -0.435 0
f 237 238 239 240
g walls_edge0
usemtl c_c3c0b3
v 0.5 -0.435 0
v -0.5 -0.435 0
v -0.5 -0.435 0.90625
v 0.5 -0.435 0.90625
f 241 242 243 244
g walls_edge0
usemtl c_c3c0b3
v -0.5 -0.435 0
v -0.5 -0.565 0
v -0.5 -0.565 0.90625
v -0.5 -0.435 0.90625
f 245 246 247 248
g walls_edge0
usemtl c_c3c0b3
v -0.5 -0.565 0
v 0.5 -0.565 0
v 0.5 -0.565 0.90625
v -0.5 -0.565 0.90625
f 249 250 251 252
g walls_edge1
usemtl c_c3c0b3
v -0.435 -0.5 0.90625
v -0.435 0.5 0.90625
v -0.565 0.5 0.90625
v -0.565 -0.5 0.90625
f 253 254 255 256
g walls_edge1
usemtl c_c3c0b3
v -0.565 -0.5 0
v -0.565 0.5 0
v -0.435 0.5 0
v -0.435 -0.5 0
f 257 258 259 260
g walls_edge1
usemtl c_c3c0b3
v -0.435 -0.5 0
v -0.435 0.5 0
v -0.435 0.5 0.90625
v -0.435 -0.5 0.90625
f 261 262 263 264
g walls_edge1
usemtl c_c3c0b3
v -0.565 0.5 0
v -0.565 -0.5 0
v -0.565 -0.5 0.90625
v -0.565 0.5 0.90625
f 265 266 267 268
g walls_edge1
usemtl c_c3c0b3
v -0.565 -0.5 0
v -0.435 -0.5 0
v -0.435 -0.5 0.90625
v -0.565 -0.5 0.90625
f 269 270 271 272
g walls_edge2
usemtl c_c3c0b3
v 1.5 -0.435 0.90625
v 0.5 -0.435 0.90625
v 0.5 -0.565 0.90625
v 1.5 -0.565 0.90625
f 273 274 275 276
g walls_edge2
usemtl c_c3c0b3
v 1.5 -0.565 0
v 0.5 -0.565 0
v 0.5 -0.435 0
v 1.5 -0.435 0
f 277 278 279 280
g walls_edge2
usemtl c_c3c0b3
v 1.5 -0.435 0
v 0.5 -0.435 0
v 0.5 -0.435 0.90625
v 1.5 -0.435 0.90625
f 281 282 283 284
g walls_edge2
usemtl c_c3c0b3
v 0.5 -0.565 0
v 1.5 -0.565 0
v 1.5 -0.565 0.90625
v 0.5 -0.565 0.90625
f 285 286 287 288
g walls_edge3
usemtl c_c3c0b3
v 2.5 -0.435 0.90625
v 1.5 -0.435 0.90625
v 1.5 -0.565 0.90625
v 2.5 -0.565 0.90625
f 289 290 291 292
g walls_edge3
usemtl c_c3c0b3
v 2.5 -0.565 0
v 1.5 -0.565 0
v 1.5 -0.435 0
v 2.5 -0.435 0
f 293 294 295 296
g walls_edge3
usemtl c_c3c0b3
v 2.5 -0.435 0
v 1.5 -0.435 0
v 1.5 -0.435 0.90625
v 2.5 -0.435 0.90625
f 297 298 299 300
g walls_edge3
usemtl c_c3c0b3
v 1.5 -0.565 0
v 2.5 -0.565 0
v 2.5 -0.565 0.90625
v 1.5 -0.565 0.90625
f 301 302 303 304
g walls_edge4
usemtl c_c3c0b3
v 3.5 -0.435 0.90625
v 2.5 -0.435 0.90625
v 2.5 -0.565 0.90625
v 3.5 -0.565 0.90625
f 305 306 307 308
g walls_edge4
usemtl c_c3c0b3
v 3.5 -0.565 0
v 2.5 -0.565 0
v 2.5 -0.435 0
v 3.5 -0.435 0
f 309 310 311 312
g walls_edge4
usemtl c_c3c0b3
v 3.5 -0.435 0
v 2.5 -0.435 0
v 2.5 -0.435 0.90625
v 3.5 -0.435 0.90625
f 313 314 315 316
g walls_edge4
usemtl c_c3c0b3
v 2.5 -0.565 0
v 3.5 -0.565 0
v 3.5 -0.565 0.90625
v 2.5 -0.565 0.90625
f 317 318 319 320
g walls_edge5
usemtl c_c3c0b3
v 4.5 -0.435 0.90625
v 3.5 -0.435 0.90625
v 3.5 -0.565 0.90625
v 4.5 -0.565 0.90625
f 321 322 323 324
g walls_edge5
usemtl c_c3c0b3
v 4.5 -0.565 0
v 3.5 -0.565 0
v 3.5 -0.435 0
v 4.5 -0.435 0
f 325 326 327 328
g walls_edge5
usemtl c_c3c0b3
v 4.5 -0.435 0
v 3.5 -0.435 0
v 3.5 -0.435 0.90625
v 4.5 -0.435 0.90625
f 329 330 331 332
g walls_edge5
usemtl c_c3c0b3
v 3.5 -0.565 0
v 4.5 -0.565 0
v 4.5 -0.565 0.90625
v 3.5 -0.565 0.90625
f 333 334 335 336
g walls_edge5
usemtl c_c3c0b3
v 4.5 -0.565 0
v 4.5 -0.435 0
v 4.5 -0.435 0.90625
v 4.5 -0.565 0.90625
f 337 338 339 340
g walls_edge6
usemtl c_c3c0b3
v 4.435 0.5 0.90625
v 4.435 -0.5 0.90625
v 4.565 -0.5 0.90625
v 4.565 0.5 0.90625
f 341 342 343 344
g walls_edge6
usemtl c_c3c0b3
v 4.565 0.5 0
v 4.565 -0.5 0
v 4.435 -0.5 0
v 4.435 0.5 0
f 345 346 347 348
g walls_edge6
usemtl c_c3c0b3
v 4.435 0.5 0
v 4.435 -0.5 0
v 4.435 -0.5 0.90625
v 4.435 0.5 0.90625
f 349 350 351 352
g walls_edge6
usemtl c_c3c0b3
v 4.435 -0.5 0
v 4.565 -0.5 0
v 4.565 -0.5 0.90625
v 4.435 -0.5 0.90625
f 353 354 355 356
g walls_edge6
usemtl c_c3c0b3
v 4.565 -0.5 0
v 4.565 0.5 0
v 4.565 0.5 0.90625
v 4.565 -0.5 0.90625
f 357 358 359 360
g walls_edge7
usemtl c_c3c0b3
v -0.435 0.5 0.90625
v -0.435 1.5 0.90625
v -0.565 1.5 0.90625
v -0.565 0.5 0.90625
f 361 362 363 364
g walls_edge7
usemtl c_c3c0b3
v -0.565 0.5 0
v -0.565 1.5 0
v -0.435 1.5 0
v -0.435 0.5 0
f 365 366 367 368
g walls_edge7
usemtl c_c3c0b3
v -0.435 0.5 0
v -0.435 1.5 0
v -0.435 1.5 0.90625
v -0.435 0.5 0.90625
f 369 370 371 372
g walls_edge7
usemtl c_c3c0b3
v -0.565 1.5 0
v -0.565 0.5 0
v -0.565 0.5 0.90625
v -0.565 1.5 0.90625
f 373 374 375 376
g walls_edge8
usemtl c_c3c0b3
v 4.435 1.5 0.90625
v 4.435 0.5 0.90625
v 4.565 0.5 0.90625
v 4.565 1.5 0.90625
f 377 378 379 380
g walls_edge8
usemtl c_c3c0b3
v 4.565 1.5 0
v 4.565 0.5 0
v 4.435 0.5 0
v 4.435 1.5 0
f 381 382 383 384
g walls_edge8
usemtl c_c3c0b3
v 4.435 1.5 0
v 4.435 0.5 0
v 4.435 0.5 0.90625
v 4.435 1.5 0.90625
f 385 386 387 388
g walls_edge8
usemtl c_c3c0b3
v 4.565 0.5 0
v 4.565 1.5 0
v 4.565 1.5 0.90625
v 4.565 0.5 0.90625
f 389 390 391 392
g walls_edge9
usemtl c_c3c0b3
v -0.435 1.5 0.90625
v -0.435 2.5 0.90625
v -0.565 2.5 0.90625
v -0.565 1.5 0.90625
f 393 394 395 396
g walls_edge9
usemtl c_c3c0b3
v -0.565 1.5 0
v -0.565 2.5 0
v -0.435 2.5 0
v -0.435 1.5 0
f 397 398 399 400
g walls_edge9
usemtl c_c3c0b3
v -0.435 1.5 0
v -0.435 2.5 0
v -0.435 2.5 0.90625
v -0.435 1.5 0.90625
f 401 402 403 404
g walls_edge9
usemtl c_c3c0b3
v -0.565 2.5 0
v -0.565 1.5 0
v -0.565 1.5 0.90625
v -0.565 2.5 0.90625
f 405 406 407 408
g walls_edge10
usemtl c_c3c0b3
v 1.435 2.5 0.90625
v 1.435 1.5 0.90625
v 1.565 1.5 0.90625
v 1.565 2.5 0.90625
f 409 410 411 412
g walls_edge10
usemtl c_c3c0b3
v 1.565 2.5 0
v 1.565 1.5 0
v 1.435 1.5 0
v 1.435 2.5 0
f 413 414 415 416
g walls_edge10
usemtl c_c3c0b3
v 1.435 2.5 0
v 1.435 1.5 0
v 1.435 1.5 0.90625
v 1.435 2.5 0.90625
f 417 418 419 420
g walls_edge10
usemtl c_c3c0b3
v 1.435 1.5 0
v 1.565 1.5 0
v 1.565 1.5 0.90625
v 1.435 1.5 0.90625
f 421 422 423 424
g walls_edge10
usemtl c_c3c0b3
v 1.565 1.5 0
v 1.565 2.5 0
v 1.565 2.5 0.90625
v 1.565 1.5 0.90625
f 425 426 427 428
g walls_edge11
usemtl c_c3c0b3
v 2.565 1.5 0.90625
v 2.565 2.5 0.90625
v 2.435 2.5 0.90625
v 2.435 1.5 0.90625
f 429 430 431 432
g walls_edge11
usemtl c_c3c0b3
v 2.435 1.5 0
v 2.435 2.5 0
v 2.565 2.5 0
v 2.565 1.5 0
f 433 434 435 436
g walls_edge11
usemtl c_c3c0b3
v 2.565 1.5 0
v 2.565 2.5 0
v 2.565 2.5 0.90625
v 2.565 1.5 0.90625
f 437 438 439 440
g walls_edge11
usemtl c_c3c0b3
v 2.435 2.5 0
v 2.435 1.5 0
v 2.435 1.5 0.90625
v 2.435 2.5 0.90625
f 441 442 443 444
g walls_edge11
usemtl c_c3c0b3
v 2.435 1.5 0
v 2.565 1.5 0
v 2.565 1.5 0.90625
v 2.435 1.5 0.90625
f 445 446 447 448
g walls_edge12
usemtl c_c3c0b3
v 4.435 2.5 0.90625
v 4.435 1.5 0.90625
v 4.565 1.5 0.90625
v 4.565 2.5 0.90625
f 449 450 451 452
g walls_edge12
usemtl c_c3c0b3
v 4.565 2.5 0
v 4.565 1.5 0
v 4.435 1.5 0
v 4.435 2.5 0
f 453 454 455 456
g walls_edge12
usemtl c_c3c0b3
v 4.435 2.5 0
v 4.435 1.5 0
v 4.435 1.5 0.90625
v 4.435 2.5 0.90625
f 457 458 459 460
g walls_edge12
usemtl c_c3c0b3
v 4.565 1.5 0
v 4.565 2.5 0
v 4.565 2.5 0.90625
v 4.565 1.5 0.90625
f 461 462 463 464
g walls_edge13
usemtl c_c3c0b3
v -0.5 3.435 0.90625
v 0.5 3.435 0.90625
v 0.5 3.565 0.90625
v -0.5 3.565 0.90625
f 465 466 467 468
g walls_edge13
usemtl c_c3c0b3
v -0.5 3.565 0
v 0.5 3.565 0
v 0.5 3.435 0
v -0.5 3.435 0
f 469 470 471 472
g walls_edge13
usemtl c_c3c0b3
v -0.5 3.435 0
v 0.5 3.435 0
v 0.5 3.435 0.90625
v -0.5 3.435 0.90625
f 473 474 475 476
g walls_edge13
usemtl c_c3c0b3
v 0.5 3.565 0
v -0.5 3.565 0
v -0.5 3.565 0.90625
v 0.5 3.565 0.90625
f 477 478 479 480
g walls_edge13
usemtl c_c3c0b3
v -0.5 3.565 0
v -0.5 3.435 0
v -0.5 3.435 0.90625
v -0.5 3.565 0.90625
f 481 482 483 484
g walls_edge14
usemtl c_c3c0b3
v -0.435 2.5 0.90625
v -0.435 3.5 0.90625
v -0.565 3.5 0.90625
v -0.565 2.5 0.90625
f 485 486 487 488
g walls_edge14
usemtl c_c3c0b3
v -0.565 2.5 0
v -0.565 3.5 0
v -0.435 3.5 0
v -0.435 2.5 0
f 489 490 491 492
g walls_edge14
usemtl c_c3c0b3
v -0.435 2.5 0
v -0.435 3.5 0
v -0.435 3.5 0.90625
v -0.435 2.5 0.90625
f 493 494 495 496
g walls_edge14
usemtl c_c3c0b3
v -0.435 3.5 0
v -0.565 3.5 0
v -0.565 3.5 0.90625
v -0.435 3.5 0.90625
f 497 498 499 500
g walls_edge14
usemtl c_c3c0b3
v -0.565 3.5 0
v -0.565 2.5 0
v -0.565 2.5 0.90625
v -0.565 3.5 0.90625
f 501 502 503 504
g walls_edge15
usemtl c_c3c0b3
v 1.435 3.5 0.90625
v 1.435 2.5 0.90625
v 1.565 2.5 0.90625
v 1.565 3.5 0.90625
f 505 506 507 508
g walls_edge15
usemtl c_c3c0b3
v 1.565 3.5 0
v 1.565 2.5 0
v 1.435 2.5 0
v 1.435 3.5 0
f 509 510 511 512
g walls_edge15
usemtl c_c3c0b3
v 1.435 3.5 0
v 1.435 2.5 0
v 1.435 2.5 0.90625
v 1.435 3.5 0.90625
f 513 514 515 516
g walls_edge15
usemtl c_c3c0b3
v 1.565 2.5 0
v 1.565 3.5 0
v 1.565 3.5 0.90625
v 1.565 2.5 0.90625
f 517 518 519 520
g walls_edge15
usemtl c_c3c0b3
v 1.565 3.5 0
v 1.435 3.5 0
v 1.435 3.5 0.90625
v 1.565 3.5 0.90625
f 521 522 523 524
g walls_edge16
usemtl c_c3c0b3
v 0.5 3.435 0.90625
v 1.5 3.435 0.90625
v 1.5 3.565 0.90625
v 0.5 3.565 0.90625
f 525 526 527 528
g walls_edge16
usemtl c_c3c0b3
v 0.5 3.565 0
v 1.5 3.565 0
v 1.5 3.435 0
v 0.5 3.435 0
f 529 530 531 532
g walls_edge16
usemtl c_c3c0b3
v 0.5 3.435 0
v 1.5 3.435 0
v 1.5 3.435 0.90625
v 0.5 3.435 0.90625
f 533 534 535 536
g walls_edge16
usemtl c_c3c0b3
v 1.5 3.435 0
v 1.5 3.565 0
v 1.5 3.565 0.90625
v 1.5 3.435 0.90625
f 537 538 539 540
g walls_edge16
usemtl c_c3c0b3
v 1.5 3.565 0
v 0.5 3.565 0
v 0.5 3.565 0.90625
v 1.5 3.565 0.90625
f 541 542 543 544
g walls_edge17
usemtl c_c3c0b3
v 2.5 3.435 0.90625
v 3.5 3.435 0.90625
v 3.5 3.565 0.90625
v 2.5 3.565 0.90625
f 545 546 547 548
g walls_edge17
usemtl c_c3c0b3
v 2.5 3.565 0
v 3.5 3.565 0
v 3.5 3.435 0
v 2.5 3.435 0
f 549 550 551 552
g walls_edge17
usemtl c_c3c0b3
v 2.5 3.435 0
v 3.5 3.435 0
v 3.5 3.435 0.90625
v 2.5 3.435 0.90625
f 553 554 555 556
g walls_edge17
usemtl c_c3c0b3
v 3.5 3.565 0
v 2.5 3.565 0
v 2.5 3.565 0.90625
v 3.5 3.565 0.90625
f 557 558 559 560
g walls_edge17
usemtl c_c3c0b3
v 2.5 3.565 0
v 2.5 3.435 0
v 2.5 3.435 0.90625
v 2.5 3.565 0.90625
f 561 562 563 564
g walls_edge18
usemtl c_c3c0b3
v 2.565 2.5 0.90625
v 2.565 3.5 0.90625
v 2.435 3.5 0.90625
v 2.435 2.5 0.90625
f 565 566 567 568
g walls_edge18
usemtl c_c3c0b3
v 2.435 2.5 0
v 2.435 3.5 0
v 2.565 3.5 0
v 2.565 2.5 0
f 569 570 571 572
g walls_edge18
usemtl c_c3c0b3
v 2.565 2.5 0
v 2.565 3.5 0
v 2.565 3.5 0.90625
v 2.565 2.5 0.90625
f 573 574 575 576
g walls_edge18
usemtl c_c3c0b3
v 2.565 3.5 0
v 2.435 3.5 0
v 2.435 3.5 0.90625
v 2.565 3.5 0.90625
f 577 578 579 580
g walls_edge18
usemtl c_c3c0b3
v 2.435 3.5 0
v 2.435 2.5 0
v 2.435 2.5 0.90625
v 2.435 3.5 0.90625
f 581 582 583 584
g walls_edge19
usemtl c_c3c0b3
v 4.435 3.5 0.90625
v 4.435 2.5 0.90625
v 4.565 2.5 0.90625
v 4.565 3.5 0.90625
f 585 586 587 588
g walls_edge19
usemtl c_c3c0b3
v 4.565 3.5 0
v 4.565 2.5 0
v 4.435 2.5 0
v 4.435 3.5 0
f 589 590 591 592
g walls_edge19
usemtl c_c3c0b3
v 4.435 3.5 0
v 4.435 2.5 0
v 4.435 2.5 0.90625
v 4.435 3.5 0.90625
f 593 594 595 596
g walls_edge19
usemtl c_c3c0b3
v 4.565 2.5 0
v 4.565 3.5 0
v 4.565 3.5 0.90625
v 4.565 2.5 0.90625
f 597 598 599 600
g walls_edge19
usemtl c_c3c0b3
v 4.565 3.5 0
v 4.435 3.5 0
v 4.435 3.5 0.90625
v 4.565 3.5 0.90625
f 601 602 603 604
g walls_edge20
usemtl c_c3c0b3
v 3.5 3.435 0.90625
v 4.5 3.435 0.90625
v 4.5 3.565 0.90625
v 3.5 3.565 0.90625
f 605 606 607 608
g walls_edge20
usemtl c_c3c0b3
v 3.5 3.565 0
v 4.5 3.565 0
v 4.5 3.435 0
v 3.5 3.435 0
f 609 610 611 612
g walls_edge20
usemtl c_c3c0b3
v 3.5 3.435 0
v 4.5 3.435 0
v 4.5 3.435 0.90625
v 3.5 3.435 0.90625
f 613 614 615 616
g walls_edge20
usemtl c_c3c0b3
v 4.5 3.435 0
v 4.5 3.565 0
v 4.5 3.565 0.90625
v 4.5 3.435 0.90625
f 617 618 619 620
g walls_edge20
usemtl c_c3c0b3
v 4.5 3.565 0
v 3.5 3.565 0
v 3.5 3.565 0.90625
v 4.5 3.565 0.90625
f 621 622 623 624
g door_whole
usemtl c_b6814e
v 1.5 1.455 0.75
v 2.5 1.455 0.75
v 2.5 1.545 0.75
v 1.5 1.545 0.75
f 625 626 627 628
g door_whole
usemtl c_b6814e
v 1.5 1.545 0
v 2.5 1.545 0
v 2.5 1.455 0
v 1.5 1.455 0
f 629 630 631 632
g door_whole
usemtl c_b6814e
v 1.5 1.455 0
v 2.5 1.455 0
v 2.5 1.455 0.75
v 1.5 1.455 0.75
f 633 634 635 636
g door_whole
usemtl c_b6814e
v 2.5 1.455 0
v 2.5 1.545 0
v 2.5 1.545 0.75
v 2.5 1.455 0.75
f 637 638 639 640
g door_whole
usemtl c_b6814e
v 2.5 1.545 0
v 1.5 1.545 0
v 1.5 1.545 0.75
v 2.5 1.545 0.75
f 641 642 643 644
g door_whole
usemtl c_b6814e
v 1.5 1.545 0
v 1.5 1.455 0
v 1.5 1.455 0.75
v 1.5 1.545 0.75
f 645 646 647 648
g roof_tile0-0
usemtl c_8c7998
v -0.5 -0.5 0.99625
v 0.5 -0.5 0.99625
v 0 0 1.4025
f 649 650 651
g roof_tile0-0
usemtl c_8c7998
v 0 0 0.90625
v 0.5 -0.5 0.90625
v -0.5 -0.5 0.90625
f 652 653 654
g roof_tile0-0
usemtl c_8c7998
v -0.5 -0.5 0.90625
v 0.5 -0.5 0.90625
v 0.5 -0.5 0.99625
v -0.5 -0.5 0.99625
f 655 656 657 658
g roof_tile0-0
usemtl c_8c7998
v 0.5 -0.5 0.99625
v 0.5 0.5 1.80875
v 0 0 1.4025
f 659 660 661
g roof_tile0-0
usemtl c_8c7998
v 0 0 0.90625
v 0.5 0.5 0.90625
v 0.5 -0.5 0.90625
f 662 663 664
g roof_tile0-0
usemtl c_8c7998
v 0.5 0.5 1.80875
v -0.5 0.5 0.99625
v 0 0 1.4025
f 665 666 667
g roof_tile0-0
usemtl c_8c7998
v 0 0 0.90625
v -0.5 0.5 0.90625
v 0.5 0.5 0.90625
f 668 669 670
g roof_tile0-0
usemtl c_8c7998
v -0.5 0.5 0.99625
v -0.5 -0.5 0.99625
v 0 0 1.4025
f 671 672 673
g roof_tile0-0
usemtl c_8c7998
v 0 0 0.90625
v -0.5 -0.5 0.90625
v -0.5 0.5 0.90625
f 674 675 676
g roof_tile0-0
usemtl c_8c7998
v -0.5 0.5 0.90625
v -0.5 -0.5 0.90625
v -0.5 -0.5 0.99625
v -0.5 0.5 0.99625
f 677 678 679 680
g roof_tile1-0
usemtl c_8c7998
v 0.5 -0.5 0.99625
v 1.5 -0.5 0.99625
v 1 0 1.4025
f 681 682 683
g roof_tile1-0
usemtl c_8c7998
v 1 0 0.90625
v 1.5 -0.5 0.90625
v 0.5 -0.5 0.90625
f 684 685 686
g roof_tile1-0
usemtl c_8c7998
v 0.5 -0.5 0.90625
v 1.5 -0.5 0.90625
v 1.5 -0.5 0.99625
v 0.5 -0.5 0.99625
f 687 688 689 690
g roof_tile1-0
usemtl c_8c7998
v 1.5 -0.5 0.99625
v 1.5 0.5 1.80875
v 1 0 1.4025
f 691 692 693
g roof_tile1-0
usemtl c_8c7998
v 1 0 0.90625
v 1.5 0.5 0.90625
v 1.5 -0.5 0.90625
f 694 695 696
g roof_tile1-0
usemtl c_8c7998
v 1.5 0.5 1.80875
v 0.5 0.5 1.80875
v 1 0 1.4025
f 697 698 699
g roof_tile1-0
usemtl c_8c7998
v 1 0 0.90625
v 0.5 0.5 0.90625
v 1.5 0.5 0.90625
f 700 701 702
g roof_tile1-0
usemtl c_8c7998
v 0.5 0.5 1.80875
v 0.5 -0.5 0.99625
v 1 0 1.4025
f 703 704 705
g roof_tile1-0
usemtl c_8c7998
v 1 0 0.90625
v 0.5 -0.5 0.90625
v 0.5 0.5 0.90625
f 706 707 708
g roof_tile2-0
usemtl c_8c7998
v 1.5 -0.5 0.99625
v 2.5 -0.5 0.99625
v 2 0 1.4025
f 709 710 711
g roof_tile2-0
usemtl c_8c7998
v 2 0 0.90625
v 2.5 -0.5 0.90625
v 1.5 -0.5 0.90625
f 712 713 714
g roof_tile2-0
usemtl c_8c7998
v 1.5 -0.5 0.90625
v 2.5 -0.5 0.90625
v 2.5 -0.5 0.99625
v 1.5 -0.5 0.99625
f 715 716 717 718
g roof_tile2-0
usemtl c_8c7998
v 2.5 -0.5 0.99625
v 2.5 0.5 1.80875
v 2 0 1.4025
f 719 720 721
g roof_tile2-0
usemtl c_8c7998
v 2 0 0.90625
v 2.5 0.5 0.90625
v 2.5 -0.5 0.90625
f 722 723 724
g roof_tile2-0
usemtl c_8c7998
v 2.5 0.5 1.80875
v 1.5 0.5 1.80875
v 2 0 1.4025
f 725 726 727
g roof_tile2-0
usemtl c_8c7998
v 2 0 0.90625
v 1.5 0.5 0.90625
v 2.5 0.5 0.90625
f 728 729 730
g roof_tile2-0
usemtl c_8c7998
v 1.5 0.5 1.80875
v 1.5 -0.5 0.99625
v 2 0 1.4025
f 731 732 733
g roof_tile2-0
usemtl c_8c7998
v 2 0 0.90625
v 1.5 -0.5 0.90625
v 1.5 0.5 0.90625
f 734 735 736
g roof_tile3-0
usemtl c_8c7998
v 2.5 -0.5 0.99625
v 3.5 -0.5 0.99625
v 3 0 1.4025
f 737 738 739
g roof_tile3-0
usemtl c_8c7998
v 3 0 0.90625
v 3.5 -0.5 0.90625
v 2.5 -0.5 0.90625
f 740 741 742
g roof_tile3-0
usemtl c_8c7998
v 2.5 -0.5 0.90625
v 3.5 -0.5 0.90625
v 3.5 -0.5 0.99625
v 2.5 -0.5 0.99625
f 743 744 745 746
g roof_tile3-0
usemtl c_8c7998
v 3.5 -0.5 0.99625
v 3.5 0.5 1.80875
v 3 0 1.4025
f 747 748 749
g roof_tile3-0
usemtl c_8c7998
v 3 0 0.90625
v 3.5 0.5 0.90625
v 3.5 -0.5 0.90625
f 750 751 752
g roof_tile3-0
usemtl c_8c7998
v 3.5 0.5 1.80875
v 2.5 0.5 1.80875
v 3 0 1.4025
f 753 754 755
g roof_tile3-0
usemtl c_8c7998
v 3 0 0.90625
v 2.5 0.5 0.90625
v 3.5 0.5 0.90625
f 756 757 758
g roof_tile3-0
usemtl c_8c7998
v 2.5 0.5 1.80875
v 2.5 -0.5 0.99625
v 3 0 1.4025
f 759 760 761
g roof_tile3-0
usemtl c_8c7998
v 3 0 0.90625
v 2.5 -0.5 0.90625
v 2.5 0.5 0.90625
f 762 763 764
g roof_tile4-0
usemtl c_8c7998
v 3.5 -0.5 0.99625
v 4.5 -0.5 0.99625
v 4 0 1.4025
f 765 766 767
g roof_tile4-0
usemtl c_8c7998
v 4 0 0.90625
v 4.5 -0.5 0.90625
v 3.5 -0.5 0.90625
f 768 769 770
g roof_tile4-0
usemtl c_8c7998
v 3.5 -0.5 0.90625
v 4.5 -0.5 0.90625
v 4.5 -0.5 0.99625
v 3.5 -0.5 0.99625
f 771 772 773 774
g roof_tile4-0
usemtl c_8c7998
v 4.5 -0.5 0.99625
v 4.5 0.5 0.99625
v 4 0 1.4025
f 775 776 777
g roof_tile4-0
usemtl c_8c7998
v 4 0 0.90625
v 4.5 0.5 0.90625
v 4.5 -0.5 0.90625
f 778 779 780
g roof_tile4-0
usemtl c_8c7998
v 4.5 -0.5 0.90625
v 4.5 0.5 0.90625
v 4.5 0.5 0.99625
v 4.5 -0.5 0.99625
f 781 782 783 784
g roof_tile4-0
usemtl c_8c7998
v 4.5 0.5 0.99625
v 3.5 0.5 1.80875
v 4 0 1.4025
f 785 786 787
g roof_tile4-0
usemtl c_8c7998
v 4 0 0.90625
v 3.5 0.5 0.90625
v 4.5 0.5 0.90625
f 788 789 790
g roof_tile4-0
usemtl c_8c7998
v 3.5 0.5 1.80875
v 3.5 -0.5 0.99625
v 4 0 1.4025
f 791 792 793
g roof_tile4-0
usemtl c_8c7998
v 4 0 0.90625
v 3.5 -0.5 0.90625
v 3.5 0.5 0.90625
f 794 795 796
g roof_tile0-1
usemtl c_8c7998
v -0.5 0.5 0.99625
v 0.5 0.5 1.80875
v 0 1 1.4025
f 797 798 799
g roof_tile0-1
usemtl c_8c7998
v 0 1 0.90625
v 0.5 0.5 0.90625
v -0.5 0.5 0.90625
f 800 801 802
g roof_tile0-1
usemtl c_8c7998
v 0.5 0.5 1.80875
v 0.5 1.5 1.80875
v 0 1 1.4025
f 803 804 805
g roof_tile0-1
usemtl c_8c7998
v 0 1 0.90625
v 0.5 1.5 0.90625
v 0.5 0.5 0.90625
f 806 807 808
g roof_tile0-1
usemtl c_8c7998
v 0.5 1.5 1.80875
v -0.5 1.5 0.99625
v 0 1 1.4025
f 809 810 811
g roof_tile0-1
usemtl c_8c7998
v 0 1 0.90625
v -0.5 1.5 0.90625
v 0.5 1.5 0.90625
f 812 813 814
g roof_tile0-1
usemtl c_8c7998
v -0.5 1.5 0.99625
v -0.5 0.5 0.99625
v 0 1 1.4025
f 815 816 817
g roof_tile0-1
usemtl c_8c7998
v 0 1 0.90625
v -0.5 0.5 0.90625
v -0.5 1.5 0.90625
f 818 819 820
g roof_tile0-1
usemtl c_8c7998
v -0.5 1.5 0.90625
v -0.5 0.5 0.90625
v -0.5 0.5 0.99625
v -0.5 1.5 0.99625
f 821 822 823 824
g roof_tile1-1
usemtl c_8c7998
v 0.5 0.5 1.80875
v 1.5 0.5 1.80875
v 1 1 1.5707742597140701
f 825 826 827
g roof_tile1-1
usemtl c_8c7998
v 1 1 0.90625
v 1.5 0.5 0.90625
v 0.5 0.5 0.90625
f 828 829 830
g roof_tile1-1
usemtl c_8c7998
v 1.5 0.5 1.80875
v 1.5 1.5 0.99625
v 1 1 1.5707742597140701
f 831 832 833
g roof_tile1-1
usemtl c_8c7998
v 1 1 0.90625
v 1.5 1.5 0.90625
v 1.5 0.5 0.90625
f 834 835 836
g roof_tile1-1
usemtl c_8c7998
v 1.5 1.5 0.99625
v 0.5 1.5 1.80875
v 1 1 1.5707742597140701
f 837 838 839
g roof_tile1-1
usemtl c_8c7998
v 1 1 0.90625
v 0.5 1.5 0.90625
v 1.5 1.5 0.90625
f 840 841 842
g roof_tile1-1
usemtl c_8c7998
v 0.5 1.5 1.80875
v 0.5 0.5 1.80875
v 1 1 1.5707742597140701
f 843 844 845
g roof_tile1-1
usemtl c_8c7998
v 1 1 0.90625
v 0.5 0.5 0.90625
v 0.5 1.5 0.90625
f 846 847 848
g roof_tile2-1
usemtl c_8c7998
v 1.5 0.5 1.80875
v 2.5 0.5 1.80875
v 2 1 1.4025
f 849 850 851
g roof_tile2-1
usemtl c_8c7998
v 2 1 0.90625
v 2.5 0.5 0.90625
v 1.5 0.5 0.90625
f 852 853 854
g roof_tile2-1
usemtl c_8c7998
v 2.5 0.5 1.80875
v 2.5 1.5 0.99625
v 2 1 1.4025
f 855 856 857
g roof_tile2-1
usemtl c_8c7998
v 2 1 0.90625
v 2.5 1.5 0.90625
v 2.5 0.5 0.90625
f 858 859 860
g roof_tile2-1
usemtl c_8c7998
v 2.5 1.5 0.99625
v 1.5 1.5 0.99625
v 2 1 1.4025
f 861 862 863
g roof_tile2-1
usemtl c_8c7998
v 2 1 0.90625
v 1.5 1.5 0.90625
v 2.5 1.5 0.90625
f 864 865 866
g roof_tile2-1
usemtl c_8c7998
v 2.5 1.5 0.90625
v 1.5 1.5 0.90625
v 1.5 1.5 0.99625
v 2.5 1.5 0.99625
f 867 868 869 870
g roof_tile2-1
usemtl c_8c7998
v 1.5 1.5 0.99625
v 1.5 0.5 1.80875
v 2 1 1.4025
f 871 872 873
g roof_tile2-1
usemtl c_8c7998
v 2 1 0.90625
v 1.5 0.5 0.90625
v 1.5 1.5 0.90625
f 874 875 876
g roof_tile3-1
usemtl c_8c7998
v 2.5 0.5 1.80875
v 3.5 0.5 1.80875
v 3 1 1.5707742597140701
f 877 878 879
g roof_tile3-1
usemtl c_8c7998
v 3 1 0.90625
v 3.5 0.5 0.90625
v 2.5 0.5 0.90625
f 880 881 882
g roof_tile3-1
usemtl c_8c7998
v 3.5 0.5 1.80875
v 3.5 1.5 1.80875
v 3 1 1.5707742597140701
f 883 884 885
g roof_tile3-1
usemtl c_8c7998
v 3 1 0.90625
v 3.5 1.5 0.90625
v 3.5 0.5 0.90625
f 886 887 888
g roof_tile3-1
usemtl c_8c7998
v 3.5 1.5 1.80875
v 2.5 1.5 0.99625
v 3 1 1.5707742597140701
f 889 890 891
g roof_tile3-1
usemtl c_8c7998
v 3 1 0.90625
v 2.5 1.5 0.90625
v 3.5 1.5 0.90625
f 892 893 894
g roof_tile3-1
usemtl c_8c7998
v 2.5 1.5 0.99625
v 2.5 0.5 1.80875
v 3 1 1.5707742597140701
f 895 896 897
g roof_tile3-1
usemtl c_8c7998
v 3 1 0.90625
v 2.5 0.5 0.90625
v 2.5 1.5 0.90625
f 898 899 900
g roof_tile4-1
usemtl c_8c7998
v 3.5 0.5 1.80875
v 4.5 0.5 0.99625
v 4 1 1.4025
f 901 902 903
g roof_tile4-1
usemtl c_8c7998
v 4 1 0.90625
v 4.5 0.5 0.90625
v 3.5 0.5 0.90625
f 904 905 906
g roof_tile4-1
usemtl c_8c7998
v 4.5 0.5 0.99625
v 4.5 1.5 0.99625
v 4 1 1.4025
f 907 908 909
g roof_tile4-1
usemtl c_8c7998
v 4 1 0.90625
v 4.5 1.5 0.90625
v 4.5 0.5 0.90625
f 910 911 912
g roof_tile4-1
usemtl c_8c7998
v 4.5 0.5 0.90625
v 4.5 1.5 0.90625
v 4.5 1.5 0.99625
v 4.5 0.5 0.99625
f 913 914 915 916
g roof_tile4-1
usemtl c_8c7998
v 4.5 1.5 0.99625
v 3.5 1.5 1.80875
v 4 1 1.4025
f 917 918 919
g roof_tile4-1
usemtl c_8c7998
v 4 1 0.90625
v 3.5 1.5 0.90625
v 4.5 1.5 0.90625
f 920 921 922
g roof_tile4-1
usemtl c_8c7998
v 3.5 1.5 1.80875
v 3.5 0.5 1.80875
v 4 1 1.4025
f 923 924 925
g roof_tile4-1
usemtl c_8c7998
v 4 1 0.90625
v 3.5 0.5 0.90625
v 3.5 1.5 0.90625
f 926 927 928
g roof_tile0-2
usemtl c_8c7998
v -0.5 1.5 0.99625
v 0.5 1.5 1.80875
v 0 2 1.4025
f 929 930 931
g roof_tile0-2
usemtl c_8c7998
v 0 2 0.90625
v 0.5 1.5 0.90625
v -0.5 1.5 0.90625
f 932 933 934
g roof_tile0-2
usemtl c_8c7998
v 0.5 1.5 1.80875
v 0.5 2.5 1.80875
v 0 2 1.4025
f 935 936 937
g roof_tile0-2
usemtl c_8c7998
v 0 2 0.90625
v 0.5 2.5 0.90625
v 0.5 1.5 0.90625
f 938 939 940
g roof_tile0-2
usemtl c_8c7998
v 0.5 2.5 1.80875
v -0.5 2.5 0.99625
v 0 2 1.4025
f 941 942 943
g roof_tile0-2
usemtl c_8c7998
v 0 2 0.90625
v -0.5 2.5 0.90625
v 0.5 2.5 0.90625
f 944 945 946
g roof_tile0-2
usemtl c_8c7998
v -0.5 2.5 0.99625
v -0.5 1.5 0.99625
v 0 2 1.4025
f 947 948 949
g roof_tile0-2
usemtl c_8c7998
v 0 2 0.90625
v -0.5 1.5 0.90625
v -0.5 2.5 0.90625
f 950 951 952
g roof_tile0-2
usemtl c_8c7998
v -0.5 2.5 0.90625
v -0.5 1.5 0.90625
v -0.5 1.5 0.99625
v -0.5 2.5 0.99625
f 953 954 955 956
g roof_tile1-2
usemtl c_8c7998
v 0.5 1.5 1.80875
v 1.5 1.5 0.99625
v 1 2 1.4025
f 957 958 959
g roof_tile1-2
usemtl c_8c7998
v 1 2 0.90625
v 1.5 1.5 0.90625
v 0.5 1.5 0.90625
f 960 961 962
g roof_tile1-2
usemtl c_8c7998
v 1.5 1.5 0.99625
v 1.5 2.5 0.99625
v 1 2 1.4025
f 963 964 965
g roof_tile1-2
usemtl c_8c7998
v 1 2 0.90625
v 1.5 2.5 0.90625
v 1.5 1.5 0.90625
f 966 967 968
g roof_tile1-2
usemtl c_8c7998
v 1.5 1.5 0.90625
v 1.5 2.5 0.90625
v 1.5 2.5 0.99625
v 1.5 1.5 0.99625
f 969 970 971 972
g roof_tile1-2
usemtl c_8c7998
v 1.5 2.5 0.99625
v 0.5 2.5 1.80875
v 1 2 1.4025
f 973 974 975
g roof_tile1-2
usemtl c_8c7998
v 1 2 0.90625
v 0.5 2.5 0.90625
v 1.5 2.5 0.90625
f 976 977 978
g roof_tile1-2
usemtl c_8c7998
v 0.5 2.5 1.80875
v 0.5 1.5 1.80875
v 1 2 1.4025
f 979 980 981
g roof_tile1-2
usemtl c_8c7998
v 1 2 0.90625
v 0.5 1.5 0.90625
v 0.5 2.5 0.90625
f 982 983 984
g roof_tile3-2
usemtl c_8c7998
v 2.5 1.5 0.99625
v 3.5 1.5 1.80875
v 3 2 1.4025
f 985 986 987
g roof_tile3-2
usemtl c_8c7998
v 3 2 0.90625
v 3.5 1.5 0.90625
v 2.5 1.5 0.90625
f 988 989 990
g roof_tile3-2
usemtl c_8c7998
v 3.5 1.5 1.80875
v 3.5 2.5 1.80875
v 3 2 1.4025
f 991 992 993
g roof_tile3-2
usemtl c_8c7998
v 3 2 0.90625
v 3.5 2.5 0.90625
v 3.5 1.5 0.90625
f 994 995 996
g roof_tile3-2
usemtl c_8c7998
v 3.5 2.5 1.80875
v 2.5 2.5 0.99625
v 3 2 1.4025
f 997 998 999
g roof_tile3-2
usemtl c_8c7998
v 3 2 0.90625
v 2.5 2.5 0.90625
v 3.5 2.5 0.90625
f 1000 1001 1002
g roof_tile3-2
usemtl c_8c7998
v 2.5 2.5 0.99625
v 2.5 1.5 0.99625
v 3 2 1.4025
f 1003 1004 1005
g roof_tile3-2
usemtl c_8c7998
v 3 2 0.90625
v 2.5 1.5 0.90625
v 2.5 2.5 0.90625
f 1006 1007 1008
g roof_tile3-2
usemtl c_8c7998
v 2.5 2.5 0.90625
v 2.5 1.5 0.90625
v 2.5 1.5 0.99625
v 2.5 2.5 0.99625
f 1009 1010 1011 1012
g roof_tile4-2
usemtl c_8c7998
v 3.5 1.5 1.80875
v 4.5 1.5 0.99625
v 4 2 1.4025
f 1013 1014 1015
g roof_tile4-2
usemtl c_8c7998
v 4 2 0.90625
v 4.5 1.5 0.90625
v 3.5 1.5 0.90625
f 1016 1017 1018
g roof_tile4-2
usemtl c_8c7998
v 4.5 1.5 0.99625
v 4.5 2.5 0.99625
v 4 2 1.4025
f 1019 1020 1021
g roof_tile4-2
usemtl c_8c7998
v 4 2 0.90625
v 4.5 2.5 0.90625
v 4.5 1.5 0.90625
f 1022 1023 1024
g roof_tile4-2
usemtl c_8c7998
v 4.5 1.5 0.90625
v 4.5 2.5 0.90625
v 4.5 2.5 0.99625
v 4.5 1.5 0.99625
f 1025 1026 1027 1028
g roof_tile4-2
usemtl c_8c7998
v 4.5 2.5 0.99625
v 3.5 2.5 1.80875
v 4 2 1.4025
f 1029 1030 1031
g roof_tile4-2
usemtl c_8c7998
v 4 2 0.90625
v 3.5 2.5 0.90625
v 4.5 2.5 0.90625
f 1032 1033 1034
g roof_tile4-2
usemtl c_8c7998
v 3.5 2.5 1.80875
v 3.5 1.5 1.80875
v 4 2 1.4025
f 1035 1036 1037
g roof_tile4-2
usemtl c_8c7998
v 4 2 0.90625
v 3.5 1.5 0.90625
v 3.5 2.5 0.90625
f 1038 1039 1040
g roof_tile0-3
usemtl c_8c7998
v -0.5 2.5 0.99625
v 0.5 2.5 1.80875
v 0 3 1.4025
f 1041 1042 1043
g roof_tile0-3
usemtl c_8c7998
v 0 3 0.90625
v 0.5 2.5 0.90625
v -0.5 2.5 0.90625
f 1044 1045 1046
g roof_tile0-3
usemtl c_8c7998
v 0.5 2.5 1.80875
v 0.5 3.5 0.99625
v 0 3 1.4025
f 1047 1048 1049
g roof_tile0-3
usemtl c_8c7998
v 0 3 0.90625
v 0.5 3.5 0.90625
v 0.5 2.5 0.90625
f 1050 1051 1052
g roof_tile0-3
usemtl c_8c7998
v 0.5 3.5 0.99625
v -0.5 3.5 0.99625
v 0 3 1.4025
f 1053 1054 1055
g roof_tile0-3
usemtl c_8c7998
v 0 3 0.90625
v -0.5 3.5 0.90625
v 0.5 3.5 0.90625
f 1056 1057 1058
g roof_tile0-3
usemtl c_8c7998
v 0.5 3.5 0.90625
v -0.5 3.5 0.90625
v -0.5 3.5 0.99625
v 0.5 3.5 0.99625
f 1059 1060 1061 1062
g roof_tile0-3
usemtl c_8c7998
v -0.5 3.5 0.99625
v -0.5 2.5 0.99625
v 0 3 1.4025
f 1063 1064 1065
g roof_tile0-3
usemtl c_8c7998
v 0 3 0.90625
v -0.5 2.5 0.90625
v -0.5 3.5 0.90625
f 1066 1067 1068
g roof_tile0-3
usemtl c_8c7998
v -0.5 3.5 0.90625
v -0.5 2.5 0.90625
v -0.5 2.5 0.99625
v -0.5 3.5 0.99625
f 1069 1070 1071 1072
g roof_tile1-3
usemtl c_8c7998
v 0.5 2.5 1.80875
v 1.5 2.5 0.99625
v 1 3 1.4025
f 1073 1074 1075
g roof_tile1-3
usemtl c_8c7998
v 1 3 0.90625
v 1.5 2.5 0.90625
v 0.5 2.5 0.90625
f 1076 1077 1078
g roof_tile1-3
usemtl c_8c7998
v 1.5 2.5 0.99625
v 1.5 3.5 0.99625
v 1 3 1.4025
f 1079 1080 1081
g roof_tile1-3
usemtl c_8c7998
v 1 3 0.90625
v 1.5 3.5 0.90625
v 1.5 2.5 0.90625
f 1082 1083 1084
g roof_tile1-3
usemtl c_8c7998
v 1.5 2.5 0.90625
v 1.5 3.5 0.90625
v 1.5 3.5 0.99625
v 1.5 2.5 0.99625
f 1085 1086 1087 1088
g roof_tile1-3
usemtl c_8c7998
v 1.5 3.5 0.99625
v 0.5 3.5 0.99625
v 1 3 1.4025
f 1089 1090 1091
g roof_tile1-3
usemtl c_8c7998
v 1 3 0.90625
v 0.5 3.5 0.90625
v 1.5 3.5 0.90625
f 1092 1093 1094
g roof_tile1-3
usemtl c_8c7998
v 1.5 3.5 0.90625
v 0.5 3.5 0.90625
v 0.5 3.5 0.99625
v 1.5 3.5 0.99625
f 1095 1096 1097 1098
g roof_tile1-3
usemtl c_8c7998
v 0.5 3.5 0.99625
v 0.5 2.5 1.80875
v 1 3 1.4025
f 1099 1100 1101
g roof_tile1-3
usemtl c_8c7998
v 1 3 0.90625
v 0.5 2.5 0.90625
v 0.5 3.5 0.90625
f 1102 1103 1104
g roof_tile3-3
usemtl c_8c7998
v 2.5 2.5 0.99625
v 3.5 2.5 1.80875
v 3 3 1.4025
f 1105 1106 1107
g roof_tile3-3
usemtl c_8c7998
v 3 3 0.90625
v 3.5 2.5 0.90625
v 2.5 2.5 0.90625
f 1108 1109 1110
g roof_tile3-3
usemtl c_8c7998
v 3.5 2.5 1.80875
v 3.5 3.5 0.99625
v 3 3 1.4025
f 1111 1112 1113
g roof_tile3-3
usemtl c_8c7998
v 3 3 0.90625
v 3.5 3.5 0.90625
v 3.5 2.5 0.90625
f 1114 1115 1116
g roof_tile3-3
usemtl c_8c7998
v 3.5 3.5 0.99625
v 2.5 3.5 0.99625
v 3 3 1.4025
f 1117 1118 1119
g roof_tile3-3
usemtl c_8c7998
v 3 3 0.90625
v 2.5 3.5 0.90625
v 3.5 3.5 0.90625
f 1120 1121 1122
g roof_tile3-3
usemtl c_8c7998
v 3.5 3.5 0.90625
v 2.5 3.5 0.90625
v 2.5 3.5 0.99625
v 3.5 3.5 0.99625
f 1123 1124 1125 1126
g roof_tile3-3
usemtl c_8c7998
v 2.5 3.5 0.99625
v 2.5 2.5 0.99625
v 3 3 1.4025
f 1127 1128 1129
g roof_tile3-3
usemtl c_8c7998
v 3 3 0.90625
v 2.5 2.5 0.90625
v 2.5 3.5 0.90625
f 1130 1131 1132
g roof_tile3-3
usemtl c_8c7998
v 2.5 3.5 0.90625
v 2.5 2.5 0.90625
v 2.5 2.5 0.99625
v 2.5 3.5 0.99625
f 1133 1134 1135 1136
g roof_tile4-3
usemtl c_8c7998
v 3.5 2.5 1.80875
v 4.5 2.5 0.99625
v 4 3 1.4025
f 1137 1138 1139
g roof_tile4-3
usemtl c_8c7998
v 4 3 0.90625
v 4.5 2.5 0.90625
v 3.5 2.5 0.90625
f 1140 1141 1142
g roof_tile4-3
usemtl c_8c7998
v 4.5 2.5 0.99625
v 4.5 3.5 0.99625
v 4 3 1.4025
f 1143 1144 1145
g roof_tile4-3
usemtl c_8c7998
v 4 3 0.90625
v 4.5 3.5 0.90625
v 4.5 2.5 0.90625
f 1146 1147 1148
g roof_tile4-3
usemtl c_8c7998
v 4.5 2.5 0.90625
v 4.5 3.5 0.90625
v 4.5 3.5 0.99625
v 4.5 2.5 0.99625
f 1149 1150 1151 1152
g roof_tile4-3
usemtl c_8c7998
v 4.5 3.5 0.99625
v 3.5 3.5 0.99625
v 4 3 1.4025
f 1153 1154 1155
g roof_tile4-3
usemtl c_8c7998
v 4 3 0.90625
v 3.5 3.5 0.90625
v 4.5 3.5 0.90625
f 1156 1157 1158
g roof_tile4-3
usemtl c_8c7998
v 4.5 3.5 0.90625
v 3.5 3.5 0.90625
v 3.5 3.5 0.99625
v 4.5 3.5 0.99625
f 1159 1160 1161 1162
g roof_tile4-3
usemtl c_8c7998
v 3.5 3.5 0.99625
v 3.5 2.5 1.80875
v 4 3 1.4025
f 1163 1164 1165
g roof_tile4-3
usemtl c_8c7998
v 4 3 0.90625
v 3.5 2.5 0.90625
v 3.5 3.5 0.90625
f 1166 1167 1168
