# WordMerge generated low-poly building; Z up
mtllib materials.mtl
g foundation_tile0-0
usemtl c_cda978
v -0.5 -0.5 0
v 0.5 -0.5 0
v 0.5 0.5 0
v -0.5 0.5 0
f 1 2 3 4
g foundation_tile0-0
usemtl c_cda978
v -0.5 0.5 -0.14
v 0.5 0.5 -0.14
v 0.5 -0.5 -0.14
v -0.5 -0.5 -0.14
f 5 6 7 8
g foundation_tile0-0
usemtl c_cda978
v -0.5 -0.5 -0.14
v 0.5 -0.5 -0.14
v 0.5 -0.5 0
v -0.5 -0.5 0
f 9 10 11 12
g foundation_tile0-0
usemtl c_cda978
v -0.5 0.5 -0.14
v -0.5 -0.5 -0.14
v -0.5 -0.5 0
v -0.5 0.5 0
f 13 14 15 16
g foundation_tile1-0
usemtl c_cda978
v 0.5 -0.5 0
v 1.5 -0.5 0
v 1.5 0.5 0
v 0.5 0.5 0
f 17 18 19 20
g foundation_tile1-0
usemtl c_cda978
v 0.5 0.5 -0.14
v 1.5 0.5 -0.14
v 1.5 -0.5 -0.14
v 0.5 -0.5 -0.14
f 21 22 23 24
g foundation_tile1-0
usemtl c_cda978
v 0.5 -0.5 -0.14
v 1.5 -0.5 -0.14
v 1.5 -0.5 0
v 0.5 -0.5 0
f 25 26 27 28
g foundation_tile2-0
usemtl c_cda978
v 1.5 -0.5 0
v 2.5 -0.5 0
v 2.5 0.5 0
v 1.5 0.5 0
f 29 30 31 32
g foundation_tile2-0
usemtl c_cda978
v 1.5 0.5 -0.14
v 2.5 0.5 -0.14
v 2.5 -0.5 -0.14
v 1.5 -0.5 -0.14
f 33 34 35 36
g foundation_tile2-0
usemtl c_cda978
v 1.5 -0.5 -0.14
v 2.5 -0.5 -0.14
v 2.5 -0.5 0
v 1.5 -0.5 0
f 37 38 39 40
g foundation_tile3-0
usemtl c_cda978
v 2.5 -0.5 0
v 3.5 -0.5 0
v 3.5 0.5 0
v 2.5 0.5 0
f 41 42 43 44
g foundation_tile3-0
usemtl c_cda978
v 2.5 0.5 -0.14
v 3.5 0.5 -0.14
v 3.5 -0.5 -0.14
v 2.5 -0.5 -0.14
f 45 46 47 48
g foundation_tile3-0
usemtl c_cda978
v 2.5 -0.5 -0.14
v 3.5 -0.5 -0.14
v 3.5 -0.5 0
v 2.5 -0.5 0
f 49 50 51 52
g foundation_tile3-0
usemtl c_cda978
v 3.5 -0.5 -0.14
v 3.5 0.5 -0.14
v 3.5 0.5 0
v 3.5 -0.5 0
f 53 54 55 56
g foundation_tile0-1
usemtl c_cda978
v -0.5 0.5 0
v 0.5 0.5 0
v 0.5 1.5 0
v -0.5 1.5 0
f 57 58 59 60
g foundation_tile0-1
usemtl c_cda978
v -0.5 1.5 -0.14
v 0.5 1.5 -0.14
v 0.5 0.5 -0.14
v -0.5 0.5 -0.14
f 61 62 63 64
g foundation_tile0-1
usemtl c_cda978
v -0.5 1.5 -0.14
v -0.5 0.5 -0.14
v -0.5 0.5 0
v -0.5 1.5 0
f 65 66 67 68
g foundation_tile1-1
usemtl c_cda978
v 0.5 0.5 0
v 1.5 0.5 0
v 1.5 1.5 0
v 0.5 1.5 0
f 69 70 71 72
g foundation_tile1-1
usemtl c_cda978
v 0.5 1.5 -0.14
v 1.5 1.5 -0.14
v 1.5 0.5 -0.14
v 0.5 0.5 -0.14
f 73 74 75 76
g foundation_tile2-1
usemtl c_cda978
v 1.5 0.5 0
v 2.5 0.5 0
v 2.5 1.5 0
v 1.5 1.5 0
f 77 78 79 80
g foundation_tile2-1
usemtl c_cda978
v 1.5 1.5 -0.14
v 2.5 1.5 -0.14
v 2.5 0.5 -0.14
v 1.5 0.5 -0.14
f 81 82 83 84
g foundation_tile2-1
usemtl c_cda978
v 2.5 1.5 -0.14
v 1.5 1.5 -0.14
v 1.5 1.5 0
v 2.5 1.5 0
f 85 86 87 88
g foundation_tile3-1
usemtl c_cda978
v 2.5 0.5 0
v 3.5 0.5 0
v 3.5 1.5 0
v 2.5 1.5 0
f 89 90 91 92
g foundation_tile3-1
usemtl c_cda978
v 2.5 1.5 -0.14
v 3.5 1.5 -0.14
v 3.5 0.5 -0.14
v 2.5 0.5 -0.14
f 93 94 95 96
g foundation_tile3-1
usemtl c_cda978
v 3.5 0.5 -0.14
v 3.5 1.5 -0.14
v 3.5 1.5 0
v 3.5 0.5 0
f 97 98 99 100
g foundation_tile3-1
usemtl c_cda978
v 3.5 1.5 -0.14
v 2.5 1.5 -0.14
v 2.5 1.5 0
v 3.5 1.5 0
f 101 102 103 104
g foundation_tile0-2
usemtl c_cda978
v -0.5 1.5 0
v 0.5 1.5 0
v 0.5 2.5 0
v -0.5 2.5 0
f 105 106 107 108
g foundation_tile0-2
usemtl c_cda978
v -0.5 2.5 -0.14
v 0.5 2.5 -0.14
v 0.5 1.5 -0.14
v -0.5 1.5 -0.14
f 109 110 111 112
g foundation_tile0-2
usemtl c_cda978
v -0.5 2.5 -0.14
v -0.5 1.5 -0.14
v -0.5 1.5 0
v -0.5 2.5 0
f 113 114 115 116
g foundation_tile1-2
usemtl c_cda978
v 0.5 1.5 0
v 1.5 1.5 0
v 1.5 2.5 0
v 0.5 2.5 0
f 117 118 119 120
g foundation_tile1-2
usemtl c_cda978
v 0.5 2.5 -0.14
v 1.5 2.5 -0.14
v 1.5 1.5 -0.14
v 0.5 1.5 -0.14
f 121 122 123 124
g foundation_tile1-2
usemtl c_cda978
v 1.5 1.5 -0.14
v 1.5 2.5 -0.14
v 1.5 2.5 0
v 1.5 1.5 0
f 125 126 127 128
g foundation_tile0-3
usemtl c_cda978
v -0.5 2.5 0
v 0.5 2.5 0
v 0.5 3.5 0
v -0.5 3.5 0
f 129 130 131 132
g foundation_tile0-3
usemtl c_cda978
v -0.5 3.5 -0.14
v 0.5 3.5 -0.14
v 0.5 2.5 -0.14
v -0.5 2.5 -0.14
f 133 134 135 136
g foundation_tile0-3
usemtl c_cda978
v 0.5 3.5 -0.14
v -0.5 3.5 -0.14
v -0.5 3.5 0
v 0.5 3.5 0
f 137 138 139 140
g foundation_tile0-3
usemtl c_cda978
v -0.5 3.5 -0.14
v -0.5 2.5 -0.14
v -0.5 2.5 0
v -0.5 3.5 0
f 141 142 143 144
g foundation_tile1-3
usemtl c_cda978
v 0.5 2.5 0
v 1.5 2.5 0
v 1.5 3.5 0
v 0.5 3.5 0
f 145 146 147 148
g foundation_tile1-3
usemtl c_cda978
v 0.5 3.5 -0.14
v 1.5 3.5 -0.14
v 1.5 2.5 -0.14
v 0.5 2.5 -0.14
f 149 150 151 152
g foundation_tile1-3
usemtl c_cda978
v 1.5 2.5 -0.14
v 1.5 3.5 -0.14
v 1.5 3.5 0
v 1.5 2.5 0
f 153 154 155 156
g foundation_tile1-3
usemtl c_cda978
v 1.5 3.5 -0.14
v 0.5 3.5 -0.14
v 0.5 3.5 0
v 1.5 3.5 0
f 157 158 159 160
g walls_edge0
usemtl c_d9c9a5
v 0.5 -0.435 0.90625
v -0.5 -0.435 0.90625
v -0.5 -0.565 0.90625
v 0.5 -0.565 0.90625
f 161 162 163 164
g walls_edge0
usemtl c_d9c9a5
v 0.5 -0.565 0
v -0.5 -0.565 0
v -0.5 -0.435 0
v 0.5 -0.435 0
f 165 166 167 168
g walls_edge0
usemtl c_d9c9a5
v 0.5 -0.435 0
v -0.5 -0.435 0
v -0.5 -0.435 0.90625
v 0.5 -0.435 0.90625
f 169 170 171 172
g walls_edge0
usemtl c_d9c9a5
v -0.5 -0.435 0
v -0.5 -0.565 0
v -0.5 -0.565 0.90625
v -0.5 -0.435 0.90625
f 173 174 175 176
g walls_edge0
usemtl c_d9c9a5
v -0.5 -0.565 0
v 0.5 -0.565 0
v 0.5 -0.565 0.90625
v -0.5 -0.565 0.90625
f 177 178 179 180
g walls_edge1
usemtl c_d9c9a5
v -0.435 -0.5 0.90625
v -0.435 0.5 0.90625
v -0.565 0.5 0.90625
v -0.565 -0.5 0.90625
f 181 182 183 184
g walls_edge1
usemtl c_d9c9a5
v -0.565 -0.5 0
v -0.565 0.5 0
v -0.435 0.5 0
v -0.435 -0.5 0
f 185 186 187 188
g walls_edge1
usemtl c_d9c9a5
v -0.435 -0.5 0
v -0.435 0.5 0
v -0.435 0.5 0.90625
v -0.435 -0.5 0.90625
f 189 190 191 192
g walls_edge1
usemtl c_d9c9a5
v -0.565 0.5 0
v -0.565 -0.5 0
v -0.565 -0.5 0.90625
v -0.565 0.5 0.90625
f 193 194 195 196
g walls_edge1
usemtl c_d9c9a5
v -0.565 -0.5 0
v -0.435 -0.5 0
v -0.435 -0.5 0.90625
v -0.565 -0.5 0.90625
f 197 198 199 200
g walls_edge2
usemtl c_d9c9a5
v 1.5 -0.435 0.90625
v 0.5 -0.435 0.90625
v 0.5 -0.565 0.90625
v 1.5 -0.565 0.90625
f 201 202 203 204
g walls_edge2
usemtl c_d9c9a5
v 1.5 -0.565 0
v 0.5 -0.565 0
v 0.5 -0.435 0
v 1.5 -0.435 0
f 205 206 207 208
g walls_edge2
usemtl c_d9c9a5
v 1.5 -0.435 0
v 0.5 -0.435 0
v 0.5 -0.435 0.90625
v 1.5 -0.435 0.90625
f 209 210 211 212
g walls_edge2
usemtl c_d9c9a5
v 0.5 -0.565 0
v 1.5 -0.565 0
v 1.5 -0.565 0.90625
v 0.5 -0.565 0.90625
f 213 214 215 216
g walls_edge3
usemtl c_d9c9a5
v 2.5 -0.435 0.90625
v 1.5 -0.435 0.90625
v 1.5 -0.565 0.90625
v 2.5 -0.565 0.90625
f 217 218 219 220
g walls_edge3
usemtl c_d9c9a5
v 2.5 -0.565 0
v 1.5 -0.565 0
v 1.5 -0.435 0
v 2.5 -0.435 0
f 221 222 223 224
g walls_edge3
usemtl c_d9c9a5
v 2.5 -0.435 0
v 1.5 -0.435 0
v 1.5 -0.435 0.90625
v 2.5 -0.435 0.90625
f 225 226 227 228
g walls_edge3
usemtl c_d9c9a5
v 1.5 -0.565 0
v 2.5 -0.565 0
v 2.5 -0.565 0.90625
v 1.5 -0.565 0.90625
f 229 230 231 232
g walls_edge4
usemtl c_d9c9a5
v 3.5 -0.435 0.90625
v 2.5 -0.435 0.90625
v 2.5 -0.565 0.90625
v 3.5 -0.565 0.90625
f 233 234 235 236
g walls_edge4
usemtl c_d9c9a5
v 3.5 -0.565 0
v 2.5 -0.565 0
v 2.5 -0.435 0
v 3.5 -0.435 0
f 237 238 239 240
g walls_edge4
usemtl c_d9c9a5
v 3.5 -0.435 0
v 2.5 -0.435 0
v 2.5 -0.435 0.90625
v 3.5 -0.435 0.90625
f 241 242 243 244
g walls_edge4
usemtl c_d9c9a5
v 2.5 -0.565 0
v 3.5 -0.565 0
v 3.5 -0.565 0.90625
v 2.5 -0.565 0.90625
f 245 246 247 248
g walls_edge4
usemtl c_d9c9a5
v 3.5 -0.565 0
v 3.5 -0.435 0
v 3.5 -0.435 0.90625
v 3.5 -0.565 0.90625
f 249 250 251 252
g walls_edge5
usemtl c_d9c9a5
v 3.435 0.5 0.90625
v 3.435 -0.5 0.90625
v 3.565 -0.5 0.90625
v 3.565 0.5 0.90625
f 253 254 255 256
g walls_edge5
usemtl c_d9c9a5
v 3.565 0.5 0
v 3.565 -0.5 0
v 3.435 -0.5 0
v 3.435 0.5 0
f 257 258 259 260
g walls_edge5
usemtl c_d9c9a5
v 3.435 0.5 0
v 3.435 -0.5 0
v 3.435 -0.5 0.90625
v 3.435 0.5 0.90625
f 261 262 263 264
g walls_edge5
usemtl c_d9c9a5
v 3.435 -0.5 0
v 3.565 -0.5 0
v 3.565 -0.5 0.90625
v 3.435 -0.5 0.90625
f 265 266 267 268
g walls_edge5
usemtl c_d9c9a5
v 3.565 -0.5 0
v 3.565 0.5 0
v 3.565 0.5 0.90625
v 3.565 -0.5 0.90625
f 269 270 271 272
g walls_edge6
usemtl c_d9c9a5
v -0.435 0.5 0.90625
v -0.435 1.5 0.90625
v -0.565 1.5 0.90625
v -0.565 0.5 0.90625
f 273 274 275 276
g walls_edge6
usemtl c_d9c9a5
v -0.565 0.5 0
v -0.565 1.5 0
v -0.435 1.5 0
v -0.435 0.5 0
f 277 278 279 280
g walls_edge6
usemtl c_d9c9a5
v -0.435 0.5 0
v -0.435 1.5 0
v -0.435 1.5 0.90625
v -0.435 0.5 0.90625
f 281 282 283 284
g walls_edge6
usemtl c_d9c9a5
v -0.565 1.5 0
v -0.565 0.5 0
v -0.565 0.5 0.90625
v -0.565 1.5 0.90625
f 285 286 287 288
g walls_edge7
usemtl c_d9c9a5
v 1.5 1.435 0.90625
v 2.5 1.435 0.90625
v 2.5 1.565 0.90625
v 1.5 1.565 0.90625
f 289 290 291 292
g walls_edge7
usemtl c_d9c9a5
v 1.5 1.565 0
v 2.5 1.565 0
v 2.5 1.435 0
v 1.5 1.435 0
f 293 294 295 296
g walls_edge7
usemtl c_d9c9a5
v 1.5 1.435 0
v 2.5 1.435 0
v 2.5 1.435 0.90625
v 1.5 1.435 0.90625
f 297 298 299 300
g walls_edge7
usemtl c_d9c9a5
v 2.5 1.565 0
v 1.5 1.565 0
v 1.5 1.565 0.90625
v 2.5 1.565 0.90625
f 301 302 303 304
g walls_edge7
usemtl c_d9c9a5
v 1.5 1.565 0
v 1.5 1.435 0
v 1.5 1.435 0.90625
v 1.5 1.565 0.90625
f 305 306 307 308
g walls_edge8
usemtl c_d9c9a5
v 3.435 1.5 0.90625
v 3.435 0.5 0.90625
v 3.565 0.5 0.90625
v 3.565 1.5 0.90625
f 309 310 311 312
g walls_edge8
usemtl c_d9c9a5
v 3.565 1.5 0
v 3.565 0.5 0
v 3.435 0.5 0
v 3.435 1.5 0
f 313 314 315 316
g walls_edge8
usemtl c_d9c9a5
v 3.435 1.5 0
v 3.435 0.5 0
v 3.435 0.5 0.90625
v 3.435 1.5 0.90625
f 317 318 319 320
g walls_edge8
usemtl c_d9c9a5
v 3.565 0.5 0
v 3.565 1.5 0
v 3.565 1.5 0.90625
v 3.565 0.5 0.90625
f 321 322 323 324
g walls_edge8
usemtl c_d9c9a5
v 3.565 1.5 0
v 3.435 1.5 0
v 3.435 1.5 0.90625
v 3.565 1.5 0.90625
f 325 326 327 328
g walls_edge9
usemtl c_d9c9a5
v 2.5 1.435 0.90625
v 3.5 1.435 0.90625
v 3.5 1.565 0.90625
v 2.5 1.565 0.90625
f 329 330 331 332
g walls_edge9
usemtl c_d9c9a5
v 2.5 1.565 0
v 3.5 1.565 0
v 3.5 1.435 0
v 2.5 1.435 0
f 333 334 335 336
g walls_edge9
usemtl c_d9c9a5
v 2.5 1.435 0
v 3.5 1.435 0
v 3.5 1.435 0.90625
v 2.5 1.435 0.90625
f 337 338 339 340
g walls_edge9
usemtl c_d9c9a5
v 3.5 1.435 0
v 3.5 1.565 0
v 3.5 1.565 0.90625
v 3.5 1.435 0.90625
f 341 342 343 344
g walls_edge9
usemtl c_d9c9a5
v 3.5 1.565 0
v 2.5 1.565 0
v 2.5 1.565 0.90625
v 3.5 1.565 0.90625
f 345 346 347 348
g walls_edge10
usemtl c_d9c9a5
v -0.435 1.5 0.90625
v -0.435 2.5 0.90625
v -0.565 2.5 0.90625
v -0.565 1.5 0.90625
f 349 350 351 352
g walls_edge10
usemtl c_d9c9a5
v -0.565 1.5 0
v -0.565 2.5 0
v -0.435 2.5 0
v -0.435 1.5 0
f 353 354 355 356
g walls_edge10
usemtl c_d9c9a5
v -0.435 1.5 0
v -0.435 2.5 0
v -0.435 2.5 0.90625
v -0.435 1.5 0.90625
f 357 358 359 360
g walls_edge10
usemtl c_d9c9a5
v -0.565 2.5 0
v -0.565 1.5 0
v -0.565 1.5 0.90625
v -0.565 2.5 0.90625
f 361 362 363 364
g walls_edge11
usemtl c_d9c9a5
v 1.435 2.5 0.90625
v 1.435 1.5 0.90625
v 1.565 1.5 0.90625
v 1.565 2.5 0.90625
f 365 366 367 368
g walls_edge11
usemtl c_d9c9a5
v 1.565 2.5 0
v 1.565 1.5 0
v 1.435 1.5 0
v 1.435 2.5 0
f 369 370 371 372
g walls_edge11
usemtl c_d9c9a5
v 1.435 2.5 0
v 1.435 1.5 0
v 1.435 1.5 0.90625
v 1.435 2.5 0.90625
f 373 374 375 376
g walls_edge11
usemtl c_d9c9a5
v 1.435 1.5 0
v 1.565 1.5 0
v 1.565 1.5 0.90625
v 1.435 1.5 0.90625
f 377 378 379 380
g walls_edge11
usemtl c_d9c9a5
v 1.565 1.5 0
v 1.565 2.5 0
v 1.565 2.5 0.90625
v 1.565 1.5 0.90625
f 381 382 383 384
g walls_edge12
usemtl c_d9c9a5
v -0.5 3.435 0.90625
v 0.5 3.435 0.90625
v 0.5 3.565 0.90625
v -0.5 3.565 0.90625
f 385 386 387 388
g walls_edge12
usemtl c_d9c9a5
v -0.5 3.565 0
v 0.5 3.565 0
v 0.5 3.435 0
v -0.5 3.435 0
f 389 390 391 392
g walls_edge12
usemtl c_d9c9a5
v -0.5 3.435 0
v 0.5 3.435 0
v 0.5 3.435 0.90625
v -0.5 3.435 0.90625
f 393 394 395 396
g walls_edge12
usemtl c_d9c9a5
v 0.5 3.435 0
v 0.5 3.565 0
v 0.5 3.565 0.90625
v 0.5 3.435 0.90625
f 397 398 399 400
g walls_edge12
usemtl c_d9c9a5
v 0.5 3.565 0
v -0.5 3.565 0
v -0.5 3.565 0.90625
v 0.5 3.565 0.90625
f 401 402 403 404
g walls_edge12
usemtl c_d9c9a5
v -0.5 3.565 0
v -0.5 3.435 0
v -0.5 3.435 0.90625
v -0.5 3.565 0.90625
f 405 406 407 408
g walls_edge13
usemtl c_d9c9a5
v -0.435 2.5 0.90625
v -0.435 3.5 0.90625
v -0.565 3.5 0.90625
v -0.565 2.5 0.90625
f 409 410 411 412
g walls_edge13
usemtl c_d9c9a5
v -0.565 2.5 0
v -0.565 3.5 0
v -0.435 3.5 0
v -0.435 2.5 0
f 413 414 415 416
g walls_edge13
usemtl c_d9c9a5
v -0.435 2.5 0
v -0.435 3.5 0
v -0.435 3.5 0.90625
v -0.435 2.5 0.90625
f 417 418 419 420
g walls_edge13
usemtl c_d9c9a5
v -0.435 3.5 0
v -0.565 3.5 0
v -0.565 3.5 0.90625
v -0.435 3.5 0.90625
f 421 422 423 424
g walls_edge13
usemtl c_d9c9a5
v -0.565 3.5 0
v -0.565 2.5 0
v -0.565 2.5 0.90625
v -0.565 3.5 0.90625
f 425 426 427 428
g walls_edge14
usemtl c_d9c9a5
v 1.435 3.5 0.90625
v 1.435 2.5 0.90625
v 1.565 2.5 0.90625
v 1.565 3.5 0.90625
f 429 430 431 432
g walls_edge14
usemtl c_d9c9a5
v 1.565 3.5 0
v 1.565 2.5 0
v 1.435 2.5 0
v 1.435 3.5 0
f 433 434 435 436
g walls_edge14
usemtl c_d9c9a5
v 1.435 3.5 0
v 1.435 2.5 0
v 1.435 2.5 0.90625
v 1.435 3.5 0.90625
f 437 438 439 440
g walls_edge14
usemtl c_d9c9a5
v 1.565 2.5 0
v 1.565 3.5 0
v 1.565 3.5 0.90625
v 1.565 2.5 0.90625
f 441 442 443 444
g walls_edge14
usemtl c_d9c9a5
v 1.565 3.5 0
v 1.435 3.5 0
v 1.435 3.5 0.90625
v 1.565 3.5 0.90625
f 445 446 447 448
g door_whole
usemtl c_b6814e
v 0.5 3.455 0.75
v 1.5 3.455 0.75
v 1.5 3.545 0.75
v 0.5 3.545 0.75
f 449 450 451 452
g door_whole
usemtl c_b6814e
v 0.5 3.545 0
v 1.5 3.545 0
v 1.5 3.455 0
v 0.5 3.455 0
f 453 454 455 456
g door_whole
usemtl c_b6814e
v 0.5 3.455 0
v 1.5 3.455 0
v 1.5 3.455 0.75
v 0.5 3.455 0.75
f 457 458 459 460
g door_whole
usemtl c_b6814e
v 1.5 3.455 0
v 1.5 3.545 0
v 1.5 3.545 0.75
v 1.5 3.455 0.75
f 461 462 463 464
g door_whole
usemtl c_b6814e
v 1.5 3.545 0
v 0.5 3.545 0
v 0.5 3.545 0.75
v 1.5 3.545 0.75
f 465 466 467 468
g door_whole
usemtl c_b6814e
v 0.5 3.545 0
v 0.5 3.455 0
v 0.5 3.455 0.75
v 0.5 3.545 0.75
f 469 470 471 472
g roof_tile0-0
usemtl c_718e7e
v -0.5 -0.5 0.99625
v 0.5 -0.5 0.99625
v 0 0 1.30875
f 473 474 475
g roof_tile0-0
usemtl c_718e7e
v 0 0 0.90625
v 0.5 -0.5 0.90625
v -0.5 -0.5 0.90625
f 476 477 478
g roof_tile0-0
usemtl c_718e7e
v -0.5 -0.5 0.90625
v 0.5 -0.5 0.90625
v 0.5 -0.5 0.99625
v -0.5 -0.5 0.99625
f 479 480 481 482
g roof_tile0-0
usemtl c_718e7e
v 0.5 -0.5 0.99625
v 0.5 0.5 1.62125
v 0 0 1.30875
f 483 484 485
g roof_tile0-0
usemtl c_718e7e
v 0 0 0.90625
v 0.5 0.5 0.90625
v 0.5 -0.5 0.90625
f 486 487 488
g roof_tile0-0
usemtl c_718e7e
v 0.5 0.5 1.62125
v -0.5 0.5 0.99625
v 0 0 1.30875
f 489 490 491
g roof_tile0-0
usemtl c_718e7e
v 0 0 0.90625
v -0.5 0.5 0.90625
v 0.5 0.5 0.90625
f 492 493 494
g roof_tile0-0
usemtl c_718e7e
v -0.5 0.5 0.99625
v -0.5 -0.5 0.99625
v 0 0 1.30875
f 495 496 497
g roof_tile0-0
usemtl c_718e7e
v 0 0 0.90625
v -0.5 -0.5 0.90625
v -0.5 0.5 0.90625
f 498 499 500
g roof_tile0-0
usemtl c_718e7e
v -0.5 0.5 0.90625
v -0.5 -0.5 0.90625
v -0.5 -0.5 0.99625
v -0.5 0.5 0.99625
f 501 502 503 504
g roof_tile1-0
usemtl c_718e7e
v 0.5 -0.5 0.99625
v 1.5 -0.5 0.99625
v 1 0 1.30875
f 505 506 507
g roof_tile1-0
usemtl c_718e7e
v 1 0 0.90625
v 1.5 -0.5 0.90625
v 0.5 -0.5 0.90625
f 508 509 510
g roof_tile1-0
usemtl c_718e7e
v 0.5 -0.5 0.90625
v 1.5 -0.5 0.90625
v 1.5 -0.5 0.99625
v 0.5 -0.5 0.99625
f 511 512 513 514
g roof_tile1-0
usemtl c_718e7e
v 1.5 -0.5 0.99625
v 1.5 0.5 1.62125
v 1 0 1.30875
f 515 516 517
g roof_tile1-0
usemtl c_718e7e
v 1 0 0.90625
v 1.5 0.5 0.90625
v 1.5 -0.5 0.90625
f 518 519 520
g roof_tile1-0
usemtl c_718e7e
v 1.5 0.5 1.62125
v 0.5 0.5 1.62125
v 1 0 1.30875
f 521 522 523
g roof_tile1-0
usemtl c_718e7e
v 1 0 0.90625
v 0.5 0.5 0.90625
v 1.5 0.5 0.90625
f 524 525 526
g roof_tile1-0
usemtl c_718e7e
v 0.5 0.5 1.62125
v 0.5 -0.5 0.99625
v 1 0 1.30875
f 527 528 529
g roof_tile1-0
usemtl c_718e7e
v 1 0 0.90625
v 0.5 -0.5 0.90625
v 0.5 0.5 0.90625
f 530 531 532
g roof_tile2-0
usemtl c_718e7e
v 1.5 -0.5 0.99625
v 2.5 -0.5 0.99625
v 2 0 1.30875
f 533 534 535
g roof_tile2-0
usemtl c_718e7e
v 2 0 0.90625
v 2.5 -0.5 0.90625
v 1.5 -0.5 0.90625
f 536 537 538
g roof_tile2-0
usemtl c_718e7e
v 1.5 -0.5 0.90625
v 2.5 -0.5 0.90625
v 2.5 -0.5 0.99625
v 1.5 -0.5 0.99625
f 539 540 541 542
g roof_tile2-0
usemtl c_718e7e
v 2.5 -0.5 0.99625
v 2.5 0.5 1.62125
v 2 0 1.30875
f 543 544 545
g roof_tile2-0
usemtl c_718e7e
v 2 0 0.90625
v 2.5 0.5 0.90625
v 2.5 -0.5 0.90625
f 546 547 548
g roof_tile2-0
usemtl c_718e7e
v 2.5 0.5 1.62125
v 1.5 0.5 1.62125
v 2 0 1.30875
f 549 550 551
g roof_tile2-0
usemtl c_718e7e
v 2 0 0.90625
v 1.5 0.5 0.90625
v 2.5 0.5 0.90625
f 552 553 554
g roof_tile2-0
usemtl c_718e7e
v 1.5 0.5 1.62125
v 1.5 -0.5 0.99625
v 2 0 1.30875
f 555 556 557
g roof_tile2-0
usemtl c_718e7e
v 2 0 0.90625
v 1.5 -0.5 0.90625
v 1.5 0.5 0.90625
f 558 559 560
g roof_tile3-0
usemtl c_718e7e
v 2.5 -0.5 0.99625
v 3.5 -0.5 0.99625
v 3 0 1.30875
f 561 562 563
g roof_tile3-0
usemtl c_718e7e
v 3 0 0.90625
v 3.5 -0.5 0.90625
v 2.5 -0.5 0.90625
f 564 565 566
g roof_tile3-0
usemtl c_718e7e
v 2.5 -0.5 0.90625
v 3.5 -0.5 0.90625
v 3.5 -0.5 0.99625
v 2.5 -0.5 0.99625
f 567 568 569 570
g roof_tile3-0
usemtl c_718e7e
v 3.5 -0.5 0.99625
v 3.5 0.5 0.99625
v 3 0 1.30875
f 571 572 573
g roof_tile3-0
usemtl c_718e7e
v 3 0 0.90625
v 3.5 0.5 0.90625
v 3.5 -0.5 0.90625
f 574 575 576
g roof_tile3-0
usemtl c_718e7e
v 3.5 -0.5 0.90625
v 3.5 0.5 0.90625
v 3.5 0.5 0.99625
v 3.5 -0.5 0.99625
f 577 578 579 580
g roof_tile3-0
usemtl c_718e7e
v 3.5 0.5 0.99625
v 2.5 0.5 1.62125
v 3 0 1.30875
f 581 582 583
g roof_tile3-0
usemtl c_718e7e
v 3 0 0.90625
v 2.5 0.5 0.90625
v 3.5 0.5 0.90625
f 584 585 586
g roof_tile3-0
usemtl c_718e7e
v 2.5 0.5 1.62125
v 2.5 -0.5 0.99625
v 3 0 1.30875
f 587 588 589
g roof_tile3-0
usemtl c_718e7e
v 3 0 0.90625
v 2.5 -0.5 0.90625
v 2.5 0.5 0.90625
f 590 591 592
g roof_tile0-1
usemtl c_718e7e
v -0.5 0.5 0.99625
v 0.5 0.5 1.62125
v 0 1 1.30875
f 593 594 595
g roof_tile0-1
usemtl c_718e7e
v 0 1 0.90625
v 0.5 0.5 0.90625
v -0.5 0.5 0.90625
f 596 597 598
g roof_tile0-1
usemtl c_718e7e
v 0.5 0.5 1.62125
v 0.5 1.5 1.62125
v 0 1 1.30875
f 599 600 601
g roof_tile0-1
usemtl c_718e7e
v 0 1 0.90625
v 0.5 1.5 0.90625
v 0.5 0.5 0.90625
f 602 603 604
g roof_tile0-1
usemtl c_718e7e
v 0.5 1.5 1.62125
v -0.5 1.5 0.99625
v 0 1 1.30875
f 605 606 607
g roof_tile0-1
usemtl c_718e7e
v 0 1 0.90625
v -0.5 1.5 0.90625
v 0.5 1.5 0.90625
f 608 609 610
g roof_tile0-1
usemtl c_718e7e
v -0.5 1.5 0.99625
v -0.5 0.5 0.99625
v 0 1 1.30875
f 611 612 613
g roof_tile0-1
usemtl c_718e7e
v 0 1 0.90625
v -0.5 0.5 0.90625
v -0.5 1.5 0.90625
f 614 615 616
g roof_tile0-1
usemtl c_718e7e
v -0.5 1.5 0.90625
v -0.5 0.5 0.90625
v -0.5 0.5 0.99625
v -0.5 1.5 0.99625
f 617 618 619 620
g roof_tile1-1
usemtl c_718e7e
v 0.5 0.5 1.62125
v 1.5 0.5 1.62125
v 1 1 1.4381917382415923
f 621 622 623
g roof_tile1-1
usemtl c_718e7e
v 1 1 0.90625
v 1.5 0.5 0.90625
v 0.5 0.5 0.90625
f 624 625 626
g roof_tile1-1
usemtl c_718e7e
v 1.5 0.5 1.62125
v 1.5 1.5 0.99625
v 1 1 1.4381917382415923
f 627 628 629
g roof_tile1-1
usemtl c_718e7e
v 1 1 0.90625
v 1.5 1.5 0.90625
v 1.5 0.5 0.90625
f 630 631 632
g roof_tile1-1
usemtl c_718e7e
v 1.5 1.5 0.99625
v 0.5 1.5 1.62125
v 1 1 1.4381917382415923
f 633 634 635
g roof_tile1-1
usemtl c_718e7e
v 1 1 0.90625
v 0.5 1.5 0.90625
v 1.5 1.5 0.90625
f 636 637 638
g roof_tile1-1
usemtl c_718e7e
v 0.5 1.5 1.62125
v 0.5 0.5 1.62125
v 1 1 1.4381917382415923
f 639 640 641
g roof_tile1-1
usemtl c_718e7e
v 1 1 0.90625
v 0.5 0.5 0.90625
v 0.5 1.5 0.90625
f 642 643 644
g roof_tile2-1
usemtl c_718e7e
v 1.5 0.5 1.62125
v 2.5 0.5 1.62125
v 2 1 1.30875
f 645 646 647
g roof_tile2-1
usemtl c_718e7e
v 2 1 0.90625
v 2.5 0.5 0.90625
v 1.5 0.5 0.90625
f 648 649 650
g roof_tile2-1
usemtl c_718e7e
v 2.5 0.5 1.62125
v 2.5 1.5 0.99625
v 2 1 1.30875
f 651 652 653
g roof_tile2-1
usemtl c_718e7e
v 2 1 0.90625
v 2.5 1.5 0.90625
v 2.5 0.5 0.90625
f 654 655 656
g roof_tile2-1
usemtl c_718e7e
v 2.5 1.5 0.99625
v 1.5 1.5 0.99625
v 2 1 1.30875
f 657 658 659
g roof_tile2-1
usemtl c_718e7e
v 2 1 0.90625
v 1.5 1.5 0.90625
v 2.5 1.5 0.90625
f 660 661 662
g roof_tile2-1
usemtl c_718e7e
v 2.5 1.5 0.90625
v 1.5 1.5 0.90625
v 1.5 1.5 0.99625
v 2.5 1.5 0.99625
f 663 664 665 666
g roof_tile2-1
usemtl c_718e7e
v 1.5 1.5 0.99625
v 1.5 0.5 1.62125
v 2 1 1.30875
f 667 668 669
g roof_tile2-1
usemtl c_718e7e
v 2 1 0.90625
v 1.5 0.5 0.90625
v 1.5 1.5 0.90625
f 670 671 672
g roof_tile3-1
usemtl c_718e7e
v 2.5 0.5 1.62125
v 3.5 0.5 0.99625
v 3 1 1.30875
f 673 674 675
g roof_tile3-1
usemtl c_718e7e
v 3 1 0.90625
v 3.5 0.5 0.90625
v 2.5 0.5 0.90625
f 676 677 678
g roof_tile3-1
usemtl c_718e7e
v 3.5 0.5 0.99625
v 3.5 1.5 0.99625
v 3 1 1.30875
f 679 680 681
g roof_tile3-1
usemtl c_718e7e
v 3 1 0.90625
v 3.5 1.5 0.90625
v 3.5 0.5 0.90625
f 682 683 684
g roof_tile3-1
usemtl c_718e7e
v 3.5 0.5 0.90625
v 3.5 1.5 0.90625
v 3.5 1.5 0.99625
v 3.5 0.5 0.99625
f 685 686 687 688
g roof_tile3-1
usemtl c_718e7e
v 3.5 1.5 0.99625
v 2.5 1.5 0.99625
v 3 1 1.30875
f 689 690 691
g roof_tile3-1
usemtl c_718e7e
v 3 1 0.90625
v 2.5 1.5 0.90625
v 3.5 1.5 0.90625
f 692 693 694
g roof_tile3-1
usemtl c_718e7e
v 3.5 1.5 0.90625
v 2.5 1.5 0.90625
v 2.5 1.5 0.99625
v 3.5 1.5 0.99625
f 695 696 697 698
g roof_tile3-1
usemtl c_718e7e
v 2.5 1.5 0.99625
v 2.5 0.5 1.62125
v 3 1 1.30875
f 699 700 701
g roof_tile3-1
usemtl c_718e7e
v 3 1 0.90625
v 2.5 0.5 0.90625
v 2.5 1.5 0.90625
f 702 703 704
g roof_tile0-2
usemtl c_718e7e
v -0.5 1.5 0.99625
v 0.5 1.5 1.62125
v 0 2 1.30875
f 705 706 707
g roof_tile0-2
usemtl c_718e7e
v 0 2 0.90625
v 0.5 1.5 0.90625
v -0.5 1.5 0.90625
f 708 709 710
g roof_tile0-2
usemtl c_718e7e
v 0.5 1.5 1.62125
v 0.5 2.5 1.62125
v 0 2 1.30875
f 711 712 713
g roof_tile0-2
usemtl c_718e7e
v 0 2 0.90625
v 0.5 2.5 0.90625
v 0.5 1.5 0.90625
f 714 715 716
g roof_tile0-2
usemtl c_718e7e
v 0.5 2.5 1.62125
v -0.5 2.5 0.99625
v 0 2 1.30875
f 717 718 719
g roof_tile0-2
usemtl c_718e7e
v 0 2 0.90625
v -0.5 2.5 0.90625
v 0.5 2.5 0.90625
f 720 721 722
g roof_tile0-2
usemtl c_718e7e
v -0.5 2.5 0.99625
v -0.5 1.5 0.99625
v 0 2 1.30875
f 723 724 725
g roof_tile0-2
usemtl c_718e7e
v 0 2 0.90625
v -0.5 1.5 0.90625
v -0.5 2.5 0.90625
f 726 727 728
g roof_tile0-2
usemtl c_718e7e
v -0.5 2.5 0.90625
v -0.5 1.5 0.90625
v -0.5 1.5 0.99625
v -0.5 2.5 0.99625
f 729 730 731 732
g roof_tile1-2
usemtl c_718e7e
v 0.5 1.5 1.62125
v 1.5 1.5 0.99625
v 1 2 1.30875
f 733 734 735
g roof_tile1-2
usemtl c_718e7e
v 1 2 0.90625
v 1.5 1.5 0.90625
v 0.5 1.5 0.90625
f 736 737 738
g roof_tile1-2
usemtl c_718e7e
v 1.5 1.5 0.99625
v 1.5 2.5 0.99625
v 1 2 1.30875
f 739 740 741
g roof_tile1-2
usemtl c_718e7e
v 1 2 0.90625
v 1.5 2.5 0.90625
v 1.5 1.5 0.90625
f 742 743 744
g roof_tile1-2
usemtl c_718e7e
v 1.5 1.5 0.90625
v 1.5 2.5 0.90625
v 1.5 2.5 0.99625
v 1.5 1.5 0.99625
f 745 746 747 748
g roof_tile1-2
usemtl c_718e7e
v 1.5 2.5 0.99625
v 0.5 2.5 1.62125
v 1 2 1.30875
f 749 750 751
g roof_tile1-2
usemtl c_718e7e
v 1 2 0.90625
v 0.5 2.5 0.90625
v 1.5 2.5 0.90625
f 752 753 754
g roof_tile1-2
usemtl c_718e7e
v 0.5 2.5 1.62125
v 0.5 1.5 1.62125
v 1 2 1.30875
f 755 756 757
g roof_tile1-2
usemtl c_718e7e
v 1 2 0.90625
v 0.5 1.5 0.90625
v 0.5 2.5 0.90625
f 758 759 760
g roof_tile0-3
usemtl c_718e7e
v -0.5 2.5 0.99625
v 0.5 2.5 1.62125
v 0 3 1.30875
f 761 762 763
g roof_tile0-3
usemtl c_718e7e
v 0 3 0.90625
v 0.5 2.5 0.90625
v -0.5 2.5 0.90625
f 764 765 766
g roof_tile0-3
usemtl c_718e7e
v 0.5 2.5 1.62125
v 0.5 3.5 0.99625
v 0 3 1.30875
f 767 768 769
g roof_tile0-3
usemtl c_718e7e
v 0 3 0.90625
v 0.5 3.5 0.90625
v 0.5 2.5 0.90625
f 770 771 772
g roof_tile0-3
usemtl c_718e7e
v 0.5 3.5 0.99625
v -0.5 3.5 0.99625
v 0 3 1.30875
f 773 774 775
g roof_tile0-3
usemtl c_718e7e
v 0 3 0.90625
v -0.5 3.5 0.90625
v 0.5 3.5 0.90625
f 776 777 778
g roof_tile0-3
usemtl c_718e7e
v 0.5 3.5 0.90625
v -0.5 3.5 0.90625
v -0.5 3.5 0.99625
v 0.5 3.5 0.99625
f 779 780 781 782
g roof_tile0-3
usemtl c_718e7e
v -0.5 3.5 0.99625
v -0.5 2.5 0.99625
v 0 3 1.30875
f 783 784 785
g roof_tile0-3
usemtl c_718e7e
v 0 3 0.90625
v -0.5 2.5 0.90625
v -0.5 3.5 0.90625
f 786 787 788
g roof_tile0-3
usemtl c_718e7e
v -0.5 3.5 0.90625
v -0.5 2.5 0.90625
v -0.5 2.5 0.99625
v -0.5 3.5 0.99625
f 789 790 791 792
g roof_tile1-3
usemtl c_718e7e
v 0.5 2.5 1.62125
v 1.5 2.5 0.99625
v 1 3 1.30875
f 793 794 795
g roof_tile1-3
usemtl c_718e7e
v 1 3 0.90625
v 1.5 2.5 0.90625
v 0.5 2.5 0.90625
f 796 797 798
g roof_tile1-3
usemtl c_718e7e
v 1.5 2.5 0.99625
v 1.5 3.5 0.99625
v 1 3 1.30875
f 799 800 801
g roof_tile1-3
usemtl c_718e7e
v 1 3 0.90625
v 1.5 3.5 0.90625
v 1.5 2.5 0.90625
f 802 803 804
g roof_tile1-3
usemtl c_718e7e
v 1.5 2.5 0.90625
v 1.5 3.5 0.90625
v 1.5 3.5 0.99625
v 1.5 2.5 0.99625
f 805 806 807 808
g roof_tile1-3
usemtl c_718e7e
v 1.5 3.5 0.99625
v 0.5 3.5 0.99625
v 1 3 1.30875
f 809 810 811
g roof_tile1-3
usemtl c_718e7e
v 1 3 0.90625
v 0.5 3.5 0.90625
v 1.5 3.5 0.90625
f 812 813 814
g roof_tile1-3
usemtl c_718e7e
v 1.5 3.5 0.90625
v 0.5 3.5 0.90625
v 0.5 3.5 0.99625
v 1.5 3.5 0.99625
f 815 816 817 818
g roof_tile1-3
usemtl c_718e7e
v 0.5 3.5 0.99625
v 0.5 2.5 1.62125
v 1 3 1.30875
f 819 820 821
g roof_tile1-3
usemtl c_718e7e
v 1 3 0.90625
v 0.5 2.5 0.90625
v 0.5 3.5 0.90625
f 822 823 824
