# WordMerge generated low-poly building; Z up
mtllib materials.mtl
g foundation_tile0-0
usemtl c_d9c5ae
v -0.5 -0.5 0
v 0.5 -0.5 0
v 0.5 0.5 0
v -0.5 0.5 0
f 1 2 3 4
g foundation_tile0-0
usemtl c_d9c5ae
v -0.5 0.5 -0.14
v 0.5 0.5 -0.14
v 0.5 -0.5 -0.14
v -0.5 -0.5 -0.14
f 5 6 7 8
g foundation_tile0-0
usemtl c_d9c5ae
v -0.5 -0.5 -0.14
v 0.5 -0.5 -0.14
v 0.5 -0.5 0
v -0.5 -0.5 0
f 9 10 11 12
g foundation_tile0-0
usemtl c_d9c5ae
v -0.5 0.5 -0.14
v -0.5 -0.5 -0.14
v -0.5 -0.5 0
v -0.5 0.5 0
f 13 14 15 16
g foundation_tile1-0
usemtl c_d9c5ae
v 0.5 -0.5 0
v 1.5 -0.5 0
v 1.5 0.5 0
v 0.5 0.5 0
f 17 18 19 20
g foundation_tile1-0
usemtl c_d9c5ae
v 0.5 0.5 -0.14
v 1.5 0.5 -0.14
v 1.5 -0.5 -0.14
v 0.5 -0.5 -0.14
f 21 22 23 24
g foundation_tile1-0
usemtl c_d9c5ae
v 0.5 -0.5 -0.14
v 1.5 -0.5 -0.14
v 1.5 -0.5 0
v 0.5 -0.5 0
f 25 26 27 28
g foundation_tile2-0
usemtl c_d9c5ae
v 1.5 -0.5 0
v 2.5 -0.5 0
v 2.5 0.5 0
v 1.5 0.5 0
f 29 30 31 32
g foundation_tile2-0
usemtl c_d9c5ae
v 1.5 0.5 -0.14
v 2.5 0.5 -0.14
v 2.5 -0.5 -0.14
v 1.5 -0.5 -0.14
f 33 34 35 36
g foundation_tile2-0
usemtl c_d9c5ae
v 1.5 -0.5 -0.14
v 2.5 -0.5 -0.14
v 2.5 -0.5 0
v 1.5 -0.5 0
f 37 38 39 40
g foundation_tile3-0
usemtl c_d9c5ae
v 2.5 -0.5 0
v 3.5 -0.5 0
v 3.5 0.5 0
v 2.5 0.5 0
f 41 42 43 44
g foundation_tile3-0
usemtl c_d9c5ae
v 2.5 0.5 -0.14
v 3.5 0.5 -0.14
v 3.5 -0.5 -0.14
v 2.5 -0.5 -0.14
f 45 46 47 48
g foundation_tile3-0
usemtl c_d9c5ae
v 2.5 -0.5 -0.14
v 3.5 -0.5 -0.14
v 3.5 -0.5 0
v 2.5 -0.5 0
f 49 50 51 52
g foundation_tile4-0
usemtl c_d9c5ae
v 3.5 -0.5 0
v 4.5 -0.5 0
v 4.5 0.5 0
v 3.5 0.5 0
f 53 54 55 56
g foundation_tile4-0
usemtl c_d9c5ae
v 3.5 0.5 -0.14
v 4.5 0.5 -0.14
v 4.5 -0.5 -0.14
v 3.5 -0.5 -0.14
f 57 58 59 60
g foundation_tile4-0
usemtl c_d9c5ae
v 3.5 -0.5 -0.14
v 4.5 -0.5 -0.14
v 4.5 -0.5 0
v 3.5 -0.5 0
f 61 62 63 64
g foundation_tile4-0
usemtl c_d9c5ae
v 4.5 -0.5 -0.14
v 4.5 0.5 -0.14
v 4.5 0.5 0
v 4.5 -0.5 0
f 65 66 67 68
g foundation_tile0-1
usemtl c_d9c5ae
v -0.5 0.5 0
v 0.5 0.5 0
v 0.5 1.5 0
v -0.5 1.5 0
f 69 70 71 72
g foundation_tile0-1
usemtl c_d9c5ae
v -0.5 1.5 -0.14
v 0.5 1.5 -0.14
v 0.5 0.5 -0.14
v -0.5 0.5 -0.14
f 73 74 75 76
g foundation_tile0-1
usemtl c_d9c5ae
v -0.5 1.5 -0.14
v -0.5 0.5 -0.14
v -0.5 0.5 0
v -0.5 1.5 0
f 77 78 79 80
g foundation_tile1-1
usemtl c_d9c5ae
v 0.5 0.5 0
v 1.5 0.5 0
v 1.5 1.5 0
v 0.5 1.5 0
f 81 82 83 84
g foundation_tile1-1
usemtl c_d9c5ae
v 0.5 1.5 -0.14
v 1.5 1.5 -0.14
v 1.5 0.5 -0.14
v 0.5 0.5 -0.14
f 85 86 87 88
g foundation_tile2-1
usemtl c_d9c5ae
v 1.5 0.5 0
v 2.5 0.5 0
v 2.5 1.5 0
v 1.5 1.5 0
f 89 90 91 92
g foundation_tile2-1
usemtl c_d9c5ae
v 1.5 1.5 -0.14
v 2.5 1.5 -0.14
v 2.5 0.5 -0.14
v 1.5 0.5 -0.14
f 93 94 95 96
g foundation_tile3-1
usemtl c_d9c5ae
v 2.5 0.5 0
v 3.5 0.5 0
v 3.5 1.5 0
v 2.5 1.5 0
f 97 98 99 100
g foundation_tile3-1
usemtl c_d9c5ae
v 2.5 1.5 -0.14
v 3.5 1.5 -0.14
v 3.5 0.5 -0.14
v 2.5 0.5 -0.14
f 101 102 103 104
g foundation_tile4-1
usemtl c_d9c5ae
v 3.5 0.5 0
v 4.5 0.5 0
v 4.5 1.5 0
v 3.5 1.5 0
f 105 106 107 108
g foundation_tile4-1
usemtl c_d9c5ae
v 3.5 1.5 -0.14
v 4.5 1.5 -0.14
v 4.5 0.5 -0.14
v 3.5 0.5 -0.14
f 109 110 111 112
g foundation_tile4-1
usemtl c_d9c5ae
v 4.5 0.5 -0.14
v 4.5 1.5 -0.14
v 4.5 1.5 0
v 4.5 0.5 0
f 113 114 115 116
g foundation_tile0-2
usemtl c_d9c5ae
v -0.5 1.5 0
v 0.5 1.5 0
v 0.5 2.5 0
v -0.5 2.5 0
f 117 118 119 120
g foundation_tile0-2
usemtl c_d9c5ae
v -0.5 2.5 -0.14
v 0.5 2.5 -0.14
v 0.5 1.5 -0.14
v -0.5 1.5 -0.14
f 121 122 123 124
g foundation_tile0-2
usemtl c_d9c5ae
v -0.5 2.5 -0.14
v -0.5 1.5 -0.14
v -0.5 1.5 0
v -0.5 2.5 0
f 125 126 127 128
g foundation_tile1-2
usemtl c_d9c5ae
v 0.5 1.5 0
v 1.5 1.5 0
v 1.5 2.5 0
v 0.5 2.5 0
f 129 130 131 132
g foundation_tile1-2
usemtl c_d9c5ae
v 0.5 2.5 -0.14
v 1.5 2.5 -0.14
v 1.5 1.5 -0.14
v 0.5 1.5 -0.14
f 133 134 135 136
g foundation_tile2-2
usemtl c_d9c5ae
v 1.5 1.5 0
v 2.5 1.5 0
v 2.5 2.5 0
v 1.5 2.5 0
f 137 138 139 140
g foundation_tile2-2
usemtl c_d9c5ae
v 1.5 2.5 -0.14
v 2.5 2.5 -0.14
v 2.5 1.5 -0.14
v 1.5 1.5 -0.14
f 141 142 143 144
g foundation_tile3-2
usemtl c_d9c5ae
v 2.5 1.5 0
v 3.5 1.5 0
v 3.5 2.5 0
v 2.5 2.5 0
f 145 146 147 148
g foundation_tile3-2
usemtl c_d9c5ae
v 2.5 2.5 -0.14
v 3.5 2.5 -0.14
v 3.5 1.5 -0.14
v 2.5 1.5 -0.14
f 149 150 151 152
g foundation_tile4-2
usemtl c_d9c5ae
v 3.5 1.5 0
v 4.5 1.5 0
v 4.5 2.5 0
v 3.5 2.5 0
f 153 154 155 156
g foundation_tile4-2
usemtl c_d9c5ae
v 3.5 2.5 -0.14
v 4.5 2.5 -0.14
v 4.5 1.5 -0.14
v 3.5 1.5 -0.14
f 157 158 159 160
g foundation_tile4-2
usemtl c_d9c5ae
v 4.5 1.5 -0.14
v 4.5 2.5 -0.14
v 4.5 2.5 0
v 4.5 1.5 0
f 161 162 163 164
g foundation_tile0-3
usemtl c_d9c5ae
v -0.5 2.5 0
v 0.5 2.5 0
v 0.5 3.5 0
v -0.5 3.5 0
f 165 166 167 168
g foundation_tile0-3
usemtl c_d9c5ae
v -0.5 3.5 -0.14
v 0.5 3.5 -0.14
v 0.5 2.5 -0.14
v -0.5 2.5 -0.14
f 169 170 171 172
g foundation_tile0-3
usemtl c_d9c5ae
v 0.5 3.5 -0.14
v -0.5 3.5 -0.14
v -0.5 3.5 0
v 0.5 3.5 0
f 173 174 175 176
g foundation_tile0-3
usemtl c_d9c5ae
v -0.5 3.5 -0.14
v -0.5 2.5 -0.14
v -0.5 2.5 0
v -0.5 3.5 0
f 177 178 179 180
g foundation_tile1-3
usemtl c_d9c5ae
v 0.5 2.5 0
v 1.5 2.5 0
v 1.5 3.5 0
v 0.5 3.5 0
f 181 182 183 184
g foundation_tile1-3
usemtl c_d9c5ae
v 0.5 3.5 -0.14
v 1.5 3.5 -0.14
v 1.5 2.5 -0.14
v 0.5 2.5 -0.14
f 185 186 187 188
g foundation_tile1-3
usemtl c_d9c5ae
v 1.5 3.5 -0.14
v 0.5 3.5 -0.14
v 0.5 3.5 0
v 1.5 3.5 0
f 189 190 191 192
g foundation_tile2-3
usemtl c_d9c5ae
v 1.5 2.5 0
v 2.5 2.5 0
v 2.5 3.5 0
v 1.5 3.5 0
f 193 194 195 196
g foundation_tile2-3
usemtl c_d9c5ae
v 1.5 3.5 -0.14
v 2.5 3.5 -0.14
v 2.5 2.5 -0.14
v 1.5 2.5 -0.14
f 197 198 199 200
g foundation_tile2-3
usemtl c_d9c5ae
v 2.5 3.5 -0.14
v 1.5 3.5 -0.14
v 1.5 3.5 0
v 2.5 3.5 0
f 201 202 203 204
g foundation_tile3-3
usemtl c_d9c5ae
v 2.5 2.5 0
v 3.5 2.5 0
v 3.5 3.5 0
v 2.5 3.5 0
f 205 206 207 208
g foundation_tile3-3
usemtl c_d9c5ae
v 2.5 3.5 -0.14
v 3.5 3.5 -0.14
v 3.5 2.5 -0.14
v 2.5 2.5 -0.14
f 209 210 211 212
g foundation_tile3-3
usemtl c_d9c5ae
v 3.5 3.5 -0.14
v 2.5 3.5 -0.14
v 2.5 3.5 0
v 3.5 3.5 0
f 213 214 215 216
g foundation_tile4-3
usemtl c_d9c5ae
v 3.5 2.5 0
v 4.5 2.5 0
v 4.5 3.5 0
v 3.5 3.5 0
f 217 218 219 220
g foundation_tile4-3
usemtl c_d9c5ae
v 3.5 3.5 -0.14
v 4.5 3.5 -0.14
v 4.5 2.5 -0.14
v 3.5 2.5 -0.14
f 221 222 223 224
g foundation_tile4-3
usemtl c_d9c5ae
v 4.5 2.5 -0.14
v 4.5 3.5 -0.14
v 4.5 3.5 0
v 4.5 2.5 0
f 225 226 227 228
g foundation_tile4-3
usemtl c_d9c5ae
v 4.5 3.5 -0.14
v 3.5 3.5 -0.14
v 3.5 3.5 0
v 4.5 3.5 0
f 229 230 231 232
g walls_edge0
usemtl c_c3c0b3
v 0.5 -0.435 0.90625
v -0.5 -0.435 0.90625
v -0.5 -0.565 0.90625
v 0.5 -0.565 0.90625
f 233 234 235 236
g walls_edge0
usemtl c_c3c0b3
v 0.5 -0.565 0
v -0.5 -0.565 0
v -0.5 -0.435 0
v 0.5 -0.435 0
f 237 238 239 240
g walls_edge0
usemtl c_c3c0b3
v 0.5 -0.435 0
v -0.5 -0.435 0
v -0.5 -0.435 0.90625
v 0.5 -0.435 0.90625
f 241 242 243 244
g walls_edge0
usemtl c_c3c0b3
v -0.5 -0.435 0
v -0.5 -0.565 0
v -0.5 -0.565 0.90625
v -0.5 -0.435 0.90625
f 245 246 247 248
g walls_edge0
usemtl c_c3c0b3
v -0.5 -0.565 0
v 0.5 -0.565 0
v 0.5 -0.565 0.90625
v -0.5 -0.565 0.90625
f 249 250 251 252
g walls_edge1
usemtl c_c3c0b3
v 1.5 -0.435 0.90625
v 0.5 -0.435 0.90625
v 0.5 -0.565 0.90625
v 1.5 -0.565 0.90625
f 253 254 255 256
g walls_edge1
usemtl c_c3c0b3
v 1.5 -0.565 0
v 0.5 -0.565 0
v 0.5 -0.435 0
v 1.5 -0.435 0
f 257 258 259 260
g walls_edge1
usemtl c_c3c0b3
v 1.5 -0.435 0
v 0.5 -0.435 0
v 0.5 -0.435 0.90625
v 1.5 -0.435 0.90625
f 261 262 263 264
g walls_edge1
usemtl c_c3c0b3
v 0.5 -0.565 0
v 1.5 -0.565 0
v 1.5 -0.565 0.90625
v 0.5 -0.565 0.90625
f 265 266 267 268
g walls_edge2
usemtl c_c3c0b3
v 2.5 -0.435 0.90625
v 1.5 -0.435 0.90625
v 1.5 -0.565 0.90625
v 2.5 -0.565 0.90625
f 269 270 271 272
g walls_edge2
usemtl c_c3c0b3
v 2.5 -0.565 0
v 1.5 -0.565 0
v 1.5 -0.435 0
v 2.5 -0.435 0
f 273 274 275 276
g walls_edge2
usemtl c_c3c0b3
v 2.5 -0.435 0
v 1.5 -0.435 0
v 1.5 -0.435 0.90625
v 2.5 -0.435 0.90625
f 277 278 279 280
g walls_edge2
usemtl c_c3c0b3
v 1.5 -0.565 0
v 2.5 -0.565 0
v 2.5 -0.565 0.90625
v 1.5 -0.565 0.90625
f 281 282 283 284
g walls_edge3
usemtl c_c3c0b3
v 3.5 -0.435 0.90625
v 2.5 -0.435 0.90625
v 2.5 -0.565 0.90625
v 3.5 -0.565 0.90625
f 285 286 287 288
g walls_edge3
usemtl c_c3c0b3
v 3.5 -0.565 0
v 2.5 -0.565 0
v 2.5 -0.435 0
v 3.5 -0.435 0
f 289 290 291 292
g walls_edge3
usemtl c_c3c0b3
v 3.5 -0.435 0
v 2.5 -0.435 0
v 2.5 -0.435 0.90625
v 3.5 -0.435 0.90625
f 293 294 295 296
g walls_edge3
usemtl c_c3c0b3
v 2.5 -0.565 0
v 3.5 -0.565 0
v 3.5 -0.565 0.90625
v 2.5 -0.565 0.90625
f 297 298 299 300
g walls_edge4
usemtl c_c3c0b3
v 4.5 -0.435 0.90625
v 3.5 -0.435 0.90625
v 3.5 -0.565 0.90625
v 4.5 -0.565 0.90625
f 301 302 303 304
g walls_edge4
usemtl c_c3c0b3
v 4.5 -0.565 0
v 3.5 -0.565 0
v 3.5 -0.435 0
v 4.5 -0.435 0
f 305 306 307 308
g walls_edge4
usemtl c_c3c0b3
v 4.5 -0.435 0
v 3.5 -0.435 0
v 3.5 -0.435 0.90625
v 4.5 -0.435 0.90625
f 309 310 311 312
g walls_edge4
usemtl c_c3c0b3
v 3.5 -0.565 0
v 4.5 -0.565 0
v 4.5 -0.565 0.90625
v 3.5 -0.565 0.90625
f 313 314 315 316
g walls_edge4
usemtl c_c3c0b3
v 4.5 -0.565 0
v 4.5 -0.435 0
v 4.5 -0.435 0.90625
v 4.5 -0.565 0.90625
f 317 318 319 320
g walls_edge5
usemtl c_c3c0b3
v -0.435 -0.5 0.90625
v -0.435 0.5 0.90625
v -0.565 0.5 0.90625
v -0.565 -0.5 0.90625
f 321 322 323 324
g walls_edge5
usemtl c_c3c0b3
v -0.565 -0.5 0
v -0.565 0.5 0
v -0.435 0.5 0
v -0.435 -0.5 0
f 325 326 327 328
g walls_edge5
usemtl c_c3c0b3
v -0.435 -0.5 0
v -0.435 0.5 0
v -0.435 0.5 0.90625
v -0.435 -0.5 0.90625
f 329 330 331 332
g walls_edge5
usemtl c_c3c0b3
v -0.565 0.5 0
v -0.565 -0.5 0
v -0.565 -0.5 0.90625
v -0.565 0.5 0.90625
f 333 334 335 336
g walls_edge5
usemtl c_c3c0b3
v -0.565 -0.5 0
v -0.435 -0.5 0
v -0.435 -0.5 0.90625
v -0.565 -0.5 0.90625
f 337 338 339 340
g walls_edge6
usemtl c_c3c0b3
v -0.435 0.5 0.90625
v -0.435 1.5 0.90625
v -0.565 1.5 0.90625
v -0.565 0.5 0.90625
f 341 342 343 344
g walls_edge6
usemtl c_c3c0b3
v -0.565 0.5 0
v -0.565 1.5 0
v -0.435 1.5 0
v -0.435 0.5 0
f 345 346 347 348
g walls_edge6
usemtl c_c3c0b3
v -0.435 0.5 0
v -0.435 1.5 0
v -0.435 1.5 0.90625
v -0.435 0.5 0.90625
f 349 350 351 352
g walls_edge6
usemtl c_c3c0b3
v -0.565 1.5 0
v -0.565 0.5 0
v -0.565 0.5 0.90625
v -0.565 1.5 0.90625
f 353 354 355 356
g walls_edge7
usemtl c_c3c0b3
v -0.435 1.5 0.90625
v -0.435 2.5 0.90625
v -0.565 2.5 0.90625
v -0.565 1.5 0.90625
f 357 358 359 360
g walls_edge7
usemtl c_c3c0b3
v -0.565 1.5 0
v -0.565 2.5 0
v -0.435 2.5 0
v -0.435 1.5 0
f 361 362 363 364
g walls_edge7
usemtl c_c3c0b3
v -0.435 1.5 0
v -0.435 2.5 0
v -0.435 2.5 0.90625
v -0.435 1.5 0.90625
f 365 366 367 368
g walls_edge7
usemtl c_c3c0b3
v -0.565 2.5 0
v -0.565 1.5 0
v -0.565 1.5 0.90625
v -0.565 2.5 0.90625
f 369 370 371 372
g walls_edge8
usemtl c_c3c0b3
v -0.435 2.5 0.90625
v -0.435 3.5 0.90625
v -0.565 3.5 0.90625
v -0.565 2.5 0.90625
f 373 374 375 376
g walls_edge8
usemtl c_c3c0b3
v -0.565 2.5 0
v -0.565 3.5 0
v -0.435 3.5 0
v -0.435 2.5 0
f 377 378 379 380
g walls_edge8
usemtl c_c3c0b3
v -0.435 2.5 0
v -0.435 3.5 0
v -0.435 3.5 0.90625
v -0.435 2.5 0.90625
f 381 382 383 384
g walls_edge8
usemtl c_c3c0b3
v -0.435 3.5 0
v -0.565 3.5 0
v -0.565 3.5 0.90625
v -0.435 3.5 0.90625
f 385 386 387 388
g walls_edge8
usemtl c_c3c0b3
v -0.565 3.5 0
v -0.565 2.5 0
v -0.565 2.5 0.90625
v -0.565 3.5 0.90625
f 389 390 391 392
g walls_edge9
usemtl c_c3c0b3
v 4.435 0.5 0.90625
v 4.435 -0.5 0.90625
v 4.565 -0.5 0.90625
v 4.565 0.5 0.90625
f 393 394 395 396
g walls_edge9
usemtl c_c3c0b3
v 4.565 0.5 0
v 4.565 -0.5 0
v 4.435 -0.5 0
v 4.435 0.5 0
f 397 398 399 400
g walls_edge9
usemtl c_c3c0b3
v 4.435 0.5 0
v 4.435 -0.5 0
v 4.435 -0.5 0.90625
v 4.435 0.5 0.90625
f 401 402 403 404
g walls_edge9
usemtl c_c3c0b3
v 4.435 -0.5 0
v 4.565 -0.5 0
v 4.565 -0.5 0.90625
v 4.435 -0.5 0.90625
f 405 406 407 408
g walls_edge9
usemtl c_c3c0b3
v 4.565 -0.5 0
v 4.565 0.5 0
v 4.565 0.5 0.90625
v 4.565 -0.5 0.90625
f 409 410 411 412
g walls_edge10
usemtl c_c3c0b3
v 4.435 1.5 0.90625
v 4.435 0.5 0.90625
v 4.565 0.5 0.90625
v 4.565 1.5 0.90625
f 413 414 415 416
g walls_edge10
usemtl c_c3c0b3
v 4.565 1.5 0
v 4.565 0.5 0
v 4.435 0.5 0
v 4.435 1.5 0
f 417 418 419 420
g walls_edge10
usemtl c_c3c0b3
v 4.435 1.5 0
v 4.435 0.5 0
v 4.435 0.5 0.90625
v 4.435 1.5 0.90625
f 421 422 423 424
g walls_edge10
usemtl c_c3c0b3
v 4.565 0.5 0
v 4.565 1.5 0
v 4.565 1.5 0.90625
v 4.565 0.5 0.90625
f 425 426 427 428
g walls_edge11
usemtl c_c3c0b3
v 4.435 2.5 0.90625
v 4.435 1.5 0.90625
v 4.565 1.5 0.90625
v 4.565 2.5 0.90625
f 429 430 431 432
g walls_edge11
usemtl c_c3c0b3
v 4.565 2.5 0
v 4.565 1.5 0
v 4.435 1.5 0
v 4.435 2.5 0
f 433 434 435 436
g walls_edge11
usemtl c_c3c0b3
v 4.435 2.5 0
v 4.435 1.5 0
v 4.435 1.5 0.90625
v 4.435 2.5 0.90625
f 437 438 439 440
g walls_edge11
usemtl c_c3c0b3
v 4.565 1.5 0
v 4.565 2.5 0
v 4.565 2.5 0.90625
v 4.565 1.5 0.90625
f 441 442 443 444
g walls_edge12
usemtl c_c3c0b3
v 4.435 3.5 0.90625
v 4.435 2.5 0.90625
v 4.565 2.5 0.90625
v 4.565 3.5 0.90625
f 445 446 447 448
g walls_edge12
usemtl c_c3c0b3
v 4.565 3.5 0
v 4.565 2.5 0
v 4.435 2.5 0
v 4.435 3.5 0
f 449 450 451 452
g walls_edge12
usemtl c_c3c0b3
v 4.435 3.5 0
v 4.435 2.5 0
v 4.435 2.5 0.90625
v 4.435 3.5 0.90625
f 453 454 455 456
g walls_edge12
usemtl c_c3c0b3
v 4.565 2.5 0
v 4.565 3.5 0
v 4.565 3.5 0.90625
v 4.565 2.5 0.90625
f 457 458 459 460
g walls_edge12
usemtl c_c3c0b3
v 4.565 3.5 0
v 4.435 3.5 0
v 4.435 3.5 0.90625
v 4.565 3.5 0.90625
f 461 462 463 464
g walls_edge13
usemtl c_c3c0b3
v -0.5 3.435 0.90625
v 0.5 3.435 0.90625
v 0.5 3.565 0.90625
v -0.5 3.565 0.90625
f 465 466 467 468
g walls_edge13
usemtl c_c3c0b3
v -0.5 3.565 0
v 0.5 3.565 0
v 0.5 3.435 0
v -0.5 3.435 0
f 469 470 471 472
g walls_edge13
usemtl c_c3c0b3
v -0.5 3.435 0
v 0.5 3.435 0
v 0.5 3.435 0.90625
v -0.5 3.435 0.90625
f 473 474 475 476
g walls_edge13
usemtl c_c3c0b3
v 0.5 3.565 0
v -0.5 3.565 0
v -0.5 3.565 0.90625
v 0.5 3.565 0.90625
f 477 478 479 480
g walls_edge13
usemtl c_c3c0b3
v -0.5 3.565 0
v -0.5 3.435 0
v -0.5 3.435 0.90625
v -0.5 3.565 0.90625
f 481 482 483 484
g walls_edge14
usemtl c_c3c0b3
v 0.5 3.435 0.90625
v 1.5 3.435 0.90625
v 1.5 3.565 0.90625
v 0.5 3.565 0.90625
f 485 486 487 488
g walls_edge14
usemtl c_c3c0b3
v 0.5 3.565 0
v 1.5 3.565 0
v 1.5 3.435 0
v 0.5 3.435 0
f 489 490 491 492
g walls_edge14
usemtl c_c3c0b3
v 0.5 3.435 0
v 1.5 3.435 0
v 1.5 3.435 0.90625
v 0.5 3.435 0.90625
f 493 494 495 496
g walls_edge14
usemtl c_c3c0b3
v 1.5 3.435 0
v 1.5 3.565 0
v 1.5 3.565 0.90625
v 1.5 3.435 0.90625
f 497 498 499 500
g walls_edge14
usemtl c_c3c0b3
v 1.5 3.565 0
v 0.5 3.565 0
v 0.5 3.565 0.90625
v 1.5 3.565 0.90625
f 501 502 503 504
g walls_edge15
usemtl c_c3c0b3
v 2.5 3.435 0.90625
v 3.5 3.435 0.90625
v 3.5 3.565 0.90625
v 2.5 3.565 0.90625
f 505 506 507 508
g walls_edge15
usemtl c_c3c0b3
v 2.5 3.565 0
v 3.5 3.565 0
v 3.5 3.435 0
v 2.5 3.435 0
f 509 510 511 512
g walls_edge15
usemtl c_c3c0b3
v 2.5 3.435 0
v 3.5 3.435 0
v 3.5 3.435 0.90625
v 2.5 3.435 0.90625
f 513 514 515 516
g walls_edge15
usemtl c_c3c0b3
v 3.5 3.565 0
v 2.5 3.565 0
v 2.5 3.565 0.90625
v 3.5 3.565 0.90625
f 517 518 519 520
g walls_edge15
usemtl c_c3c0b3
v 2.5 3.565 0
v 2.5 3.435 0
v 2.5 3.435 0.90625
v 2.5 3.565 0.90625
f 521 522 523 524
g walls_edge16
usemtl c_c3c0b3
v 3.5 3.435 0.90625
v 4.5 3.435 0.90625
v 4.5 3.565 0.90625
v 3.5 3.565 0.90625
f 525 526 527 528
g walls_edge16
usemtl c_c3c0b3
v 3.5 3.565 0
v 4.5 3.565 0
v 4.5 3.435 0
v 3.5 3.435 0
f 529 530 531 532
g walls_edge16
usemtl c_c3c0b3
v 3.5 3.435 0
v 4.5 3.435 0
v 4.5 3.435 0.90625
v 3.5 3.435 0.90625
f 533 534 535 536
g walls_edge16
usemtl c_c3c0b3
v 4.5 3.435 0
v 4.5 3.565 0
v 4.5 3.565 0.90625
v 4.5 3.435 0.90625
f 537 538 539 540
g walls_edge16
usemtl c_c3c0b3
v 4.5 3.565 0
v 3.5 3.565 0
v 3.5 3.565 0.90625
v 4.5 3.565 0.90625
f 541 542 543 544
g door_whole
usemtl c_b6814e
v 1.5 3.455 0.75
v 2.5 3.455 0.75
v 2.5 3.545 0.75
v 1.5 3.545 0.75
f 545 546 547 548
g door_whole
usemtl c_b6814e
v 1.5 3.545 0
v 2.5 3.545 0
v 2.5 3.455 0
v 1.5 3.455 0
f 549 550 551 552
g door_whole
usemtl c_b6814e
v 1.5 3.455 0
v 2.5 3.455 0
v 2.5 3.455 0.75
v 1.5 3.455 0.75
f 553 554 555 556
g door_whole
usemtl c_b6814e
v 2.5 3.455 0
v 2.5 3.545 0
v 2.5 3.545 0.75
v 2.5 3.455 0.75
f 557 558 559 560
g door_whole
usemtl c_b6814e
v 2.5 3.545 0
v 1.5 3.545 0
v 1.5 3.545 0.75
v 2.5 3.545 0.75
f 561 562 563 564
g door_whole
usemtl c_b6814e
v 1.5 3.545 0
v 1.5 3.455 0
v 1.5 3.455 0.75
v 1.5 3.545 0.75
f 565 566 567 568
g roof_tile0-0
usemtl c_8c7998
v -0.5 -0.5 0.99625
v 0.5 -0.5 0.99625
v 0.5 0.5 1.4025
v -0.5 0.5 1.4025
f 569 570 571 572
g roof_tile0-0
usemtl c_8c7998
v -0.5 0.5 0.90625
v 0.5 0.5 0.90625
v 0.5 -0.5 0.90625
v -0.5 -0.5 0.90625
f 573 574 575 576
g roof_tile0-0
usemtl c_8c7998
v -0.5 -0.5 0.90625
v 0.5 -0.5 0.90625
v 0.5 -0.5 0.99625
v -0.5 -0.5 0.99625
f 577 578 579 580
g roof_tile0-0
usemtl c_8c7998
v -0.5 0.5 0.90625
v -0.5 -0.5 0.90625
v -0.5 -0.5 0.99625
v -0.5 0.5 1.4025
f 581 582 583 584
g roof_tile1-0
usemtl c_8c7998
v 0.5 -0.5 0.99625
v 1.5 -0.5 0.99625
v 1.5 0.5 1.4025
v 0.5 0.5 1.4025
f 585 586 587 588
g roof_tile1-0
usemtl c_8c7998
v 0.5 0.5 0.90625
v 1.5 0.5 0.90625
v 1.5 -0.5 0.90625
v 0.5 -0.5 0.90625
f 589 590 591 592
g roof_tile1-0
usemtl c_8c7998
v 0.5 -0.5 0.90625
v 1.5 -0.5 0.90625
v 1.5 -0.5 0.99625
v 0.5 -0.5 0.99625
f 593 594 595 596
g roof_tile2-0
usemtl c_8c7998
v 1.5 -0.5 0.99625
v 2.5 -0.5 0.99625
v 2.5 0.5 1.4025
v 1.5 0.5 1.4025
f 597 598 599 600
g roof_tile2-0
usemtl c_8c7998
v 1.5 0.5 0.90625
v 2.5 0.5 0.90625
v 2.5 -0.5 0.90625
v 1.5 -0.5 0.90625
f 601 602 603 604
g roof_tile2-0
usemtl c_8c7998
v 1.5 -0.5 0.90625
v 2.5 -0.5 0.90625
v 2.5 -0.5 0.99625
v 1.5 -0.5 0.99625
f 605 606 607 608
g roof_tile3-0
usemtl c_8c7998
v 2.5 -0.5 0.99625
v 3.5 -0.5 0.99625
v 3.5 0.5 1.4025
v 2.5 0.5 1.4025
f 609 610 611 612
g roof_tile3-0
usemtl c_8c7998
v 2.5 0.5 0.90625
v 3.5 0.5 0.90625
v 3.5 -0.5 0.90625
v 2.5 -0.5 0.90625
f 613 614 615 616
g roof_tile3-0
usemtl c_8c7998
v 2.5 -0.5 0.90625
v 3.5 -0.5 0.90625
v 3.5 -0.5 0.99625
v 2.5 -0.5 0.99625
f 617 618 619 620
g roof_tile4-0
usemtl c_8c7998
v 3.5 -0.5 0.99625
v 4.5 -0.5 0.99625
v 4.5 0.5 1.4025
v 3.5 0.5 1.4025
f 621 622 623 624
g roof_tile4-0
usemtl c_8c7998
v 3.5 0.5 0.90625
v 4.5 0.5 0.90625
v 4.5 -0.5 0.90625
v 3.5 -0.5 0.90625
f 625 626 627 628
g roof_tile4-0
usemtl c_8c7998
v 3.5 -0.5 0.90625
v 4.5 -0.5 0.90625
v 4.5 -0.5 0.99625
v 3.5 -0.5 0.99625
f 629 630 631 632
g roof_tile4-0
usemtl c_8c7998
v 4.5 -0.5 0.90625
v 4.5 0.5 0.90625
v 4.5 0.5 1.4025
v 4.5 -0.5 0.99625
f 633 634 635 636
g roof_tile0-1
usemtl c_8c7998
v -0.5 0.5 1.4025
v 0.5 0.5 1.4025
v 0.5 1.5 1.80875
v -0.5 1.5 1.80875
f 637 638 639 640
g roof_tile0-1
usemtl c_8c7998
v -0.5 1.5 0.90625
v 0.5 1.5 0.90625
v 0.5 0.5 0.90625
v -0.5 0.5 0.90625
f 641 642 643 644
g roof_tile0-1
usemtl c_8c7998
v -0.5 1.5 0.90625
v -0.5 0.5 0.90625
v -0.5 0.5 1.4025
v -0.5 1.5 1.80875
f 645 646 647 648
g roof_tile1-1
usemtl c_8c7998
v 0.5 0.5 1.4025
v 1.5 0.5 1.4025
v 1.5 1.5 1.80875
v 0.5 1.5 1.80875
f 649 650 651 652
g roof_tile1-1
usemtl c_8c7998
v 0.5 1.5 0.90625
v 1.5 1.5 0.90625
v 1.5 0.5 0.90625
v 0.5 0.5 0.90625
f 653 654 655 656
g roof_tile2-1
usemtl c_8c7998
v 1.5 0.5 1.4025
v 2.5 0.5 1.4025
v 2.5 1.5 1.80875
v 1.5 1.5 1.80875
f 657 658 659 660
g roof_tile2-1
usemtl c_8c7998
v 1.5 1.5 0.90625
v 2.5 1.5 0.90625
v 2.5 0.5 0.90625
v 1.5 0.5 0.90625
f 661 662 663 664
g roof_tile3-1
usemtl c_8c7998
v 2.5 0.5 1.4025
v 3.5 0.5 1.4025
v 3.5 1.5 1.80875
v 2.5 1.5 1.80875
f 665 666 667 668
g roof_tile3-1
usemtl c_8c7998
v 2.5 1.5 0.90625
v 3.5 1.5 0.90625
v 3.5 0.5 0.90625
v 2.5 0.5 0.90625
f 669 670 671 672
g roof_tile4-1
usemtl c_8c7998
v 3.5 0.5 1.4025
v 4.5 0.5 1.4025
v 4.5 1.5 1.80875
v 3.5 1.5 1.80875
f 673 674 675 676
g roof_tile4-1
usemtl c_8c7998
v 3.5 1.5 0.90625
v 4.5 1.5 0.90625
v 4.5 0.5 0.90625
v 3.5 0.5 0.90625
f 677 678 679 680
g roof_tile4-1
usemtl c_8c7998
v 4.5 0.5 0.90625
v 4.5 1.5 0.90625
v 4.5 1.5 1.80875
v 4.5 0.5 1.4025
f 681 682 683 684
g roof_tile0-2
usemtl c_8c7998
v -0.5 1.5 1.80875
v 0.5 1.5 1.80875
v 0.5 2.5 1.4025
v -0.5 2.5 1.4025
f 685 686 687 688
g roof_tile0-2
usemtl c_8c7998
v -0.5 2.5 0.90625
v 0.5 2.5 0.90625
v 0.5 1.5 0.90625
v -0.5 1.5 0.90625
f 689 690 691 692
g roof_tile0-2
usemtl c_8c7998
v -0.5 2.5 0.90625
v -0.5 1.5 0.90625
v -0.5 1.5 1.80875
v -0.5 2.5 1.4025
f 693 694 695 696
g roof_tile1-2
usemtl c_8c7998
v 0.5 1.5 1.80875
v 1.5 1.5 1.80875
v 1.5 2.5 1.4025
v 0.5 2.5 1.4025
f 697 698 699 700
g roof_tile1-2
usemtl c_8c7998
v 0.5 2.5 0.90625
v 1.5 2.5 0.90625
v 1.5 1.5 0.90625
v 0.5 1.5 0.90625
f 701 702 703 704
g roof_tile2-2
usemtl c_8c7998
v 1.5 1.5 1.80875
v 2.5 1.5 1.80875
v 2.5 2.5 1.4025
v 1.5 2.5 1.4025
f 705 706 707 708
g roof_tile2-2
usemtl c_8c7998
v 1.5 2.5 0.90625
v 2.5 2.5 0.90625
v 2.5 1.5 0.90625
v 1.5 1.5 0.90625
f 709 710 711 712
g roof_tile3-2
usemtl c_8c7998
v 2.5 1.5 1.80875
v 3.5 1.5 1.80875
v 3.5 2.5 1.4025
v 2.5 2.5 1.4025
f 713 714 715 716
g roof_tile3-2
usemtl c_8c7998
v 2.5 2.5 0.90625
v 3.5 2.5 0.90625
v 3.5 1.5 0.90625
v 2.5 1.5 0.90625
f 717 718 719 720
g roof_tile4-2
usemtl c_8c7998
v 3.5 1.5 1.80875
v 4.5 1.5 1.80875
v 4.5 2.5 1.4025
v 3.5 2.5 1.4025
f 721 722 723 724
g roof_tile4-2
usemtl c_8c7998
v 3.5 2.5 0.90625
v 4.5 2.5 0.90625
v 4.5 1.5 0.90625
v 3.5 1.5 0.90625
f 725 726 727 728
g roof_tile4-2
usemtl c_8c7998
v 4.5 1.5 0.90625
v 4.5 2.5 0.90625
v 4.5 2.5 1.4025
v 4.5 1.5 1.80875
f 729 730 731 732
g roof_tile0-3
usemtl c_8c7998
v -0.5 2.5 1.4025
v 0.5 2.5 1.4025
v 0.5 3.5 0.99625
v -0.5 3.5 0.99625
f 733 734 735 736
g roof_tile0-3
usemtl c_8c7998
v -0.5 3.5 0.90625
v 0.5 3.5 0.90625
v 0.5 2.5 0.90625
v -0.5 2.5 0.90625
f 737 738 739 740
g roof_tile0-3
usemtl c_8c7998
v 0.5 3.5 0.90625
v -0.5 3.5 0.90625
v -0.5 3.5 0.99625
v 0.5 3.5 0.99625
f 741 742 743 744
g roof_tile0-3
usemtl c_8c7998
v -0.5 3.5 0.90625
v -0.5 2.5 0.90625
v -0.5 2.5 1.4025
v -0.5 3.5 0.99625
f 745 746 747 748
g roof_tile1-3
usemtl c_8c7998
v 0.5 2.5 1.4025
v 1.5 2.5 1.4025
v 1.5 3.5 0.99625
v 0.5 3.5 0.99625
f 749 750 751 752
g roof_tile1-3
usemtl c_8c7998
v 0.5 3.5 0.90625
v 1.5 3.5 0.90625
v 1.5 2.5 0.90625
v 0.5 2.5 0.90625
f 753 754 755 756
g roof_tile1-3
usemtl c_8c7998
v 1.5 3.5 0.90625
v 0.5 3.5 0.90625
v 0.5 3.5 0.99625
v 1.5 3.5 0.99625
f 757 758 759 760
g roof_tile2-3
usemtl c_8c7998
v 1.5 2.5 1.4025
v 2.5 2.5 1.4025
v 2.5 3.5 0.99625
v 1.5 3.5 0.99625
f 761 762 763 764
g roof_tile2-3
usemtl c_8c7998
v 1.5 3.5 0.90625
v 2.5 3.5 0.90625
v 2.5 2.5 0.90625
v 1.5 2.5 0.90625
f 765 766 767 768
g roof_tile2-3
usemtl c_8c7998
v 2.5 3.5 0.90625
v 1.5 3.5 0.90625
v 1.5 3.5 0.99625
v 2.5 3.5 0.99625
f 769 770 771 772
g roof_tile3-3
usemtl c_8c7998
v 2.5 2.5 1.4025
v 3.5 2.5 1.4025
v 3.5 3.5 0.99625
v 2.5 3.5 0.99625
f 773 774 775 776
g roof_tile3-3
usemtl c_8c7998
v 2.5 3.5 0.90625
v 3.5 3.5 0.90625
v 3.5 2.5 0.90625
v 2.5 2.5 0.90625
f 777 778 779 780
g roof_tile3-3
usemtl c_8c7998
v 3.5 3.5 0.90625
v 2.5 3.5 0.90625
v 2.5 3.5 0.99625
v 3.5 3.5 0.99625
f 781 782 783 784
g roof_tile4-3
usemtl c_8c7998
v 3.5 2.5 1.4025
v 4.5 2.5 1.4025
v 4.5 3.5 0.99625
v 3.5 3.5 0.99625
f 785 786 787 788
g roof_tile4-3
usemtl c_8c7998
v 3.5 3.5 0.90625
v 4.5 3.5 0.90625
v 4.5 2.5 0.90625
v 3.5 2.5 0.90625
f 789 790 791 792
g roof_tile4-3
usemtl c_8c7998
v 4.5 2.5 0.90625
v 4.5 3.5 0.90625
v 4.5 3.5 0.99625
v 4.5 2.5 1.4025
f 793 794 795 796
g roof_tile4-3
usemtl c_8c7998
v 4.5 3.5 0.90625
v 3.5 3.5 0.90625
v 3.5 3.5 0.99625
v 4.5 3.5 0.99625
f 797 798 799 800
